<?xml version="1.0" encoding="UTF-8"?>
<!DOCTYPE svg PUBLIC "-//W3C//DTD SVG 1.1//EN" "http://www.w3.org/Graphics/SVG/1.1/DTD/svg11.dtd">
<svg xmlns="http://www.w3.org/2000/svg" version="1.1" width="324px" height="337px" style="shape-rendering:geometricPrecision; text-rendering:geometricPrecision; image-rendering:optimizeQuality; fill-rule:evenodd; clip-rule:evenodd" xmlns:xlink="http://www.w3.org/1999/xlink">
<g><path style="opacity:0.553" fill="#000000" d="M 198.5,-0.5 C 203.167,-0.5 207.833,-0.5 212.5,-0.5C 220.787,0.951723 229.287,1.61839 238,1.5C 249.687,1.36822 261.187,0.70155 272.5,-0.5C 286.167,-0.5 299.833,-0.5 313.5,-0.5C 315.475,0.646381 316.975,2.31305 318,4.5C 319.678,23.665 321.512,42.665 323.5,61.5C 323.5,124.833 323.5,188.167 323.5,251.5C 321.811,277.691 319.977,304.024 318,330.5C 316.979,333.35 315.146,335.35 312.5,336.5C 297.833,336.5 283.167,336.5 268.5,336.5C 215.49,335.849 162.323,334.849 109,333.5C 94.2705,333.382 79.7705,334.382 65.5,336.5C 61.1667,336.5 56.8333,336.5 52.5,336.5C 37.6767,335.043 22.6767,333.877 7.5,333C 6.06919,332.535 4.90252,331.701 4,330.5C 2.68316,302.586 2.01649,274.586 2,246.5C 1.56331,241.294 0.729975,236.294 -0.5,231.5C -0.5,219.167 -0.5,206.833 -0.5,194.5C 3.37582,176.173 3.37582,157.84 -0.5,139.5C -0.5,127.5 -0.5,115.5 -0.5,103.5C 0.534674,97.007 1.36801,90.3404 2,83.5C 2.98338,57.8237 3.31671,32.1571 3,6.5C 3.83333,5.66667 4.66667,4.83333 5.5,4C 21.3722,1.80391 37.3722,0.637242 53.5,0.5C 102.018,3.45759 150.351,3.12425 198.5,-0.5 Z M 294.5,8.5 C 297.85,8.33499 301.183,8.50166 304.5,9C 305.701,9.90252 306.535,11.0692 307,12.5C 309.384,32.7728 311.051,53.1062 312,73.5C 312.181,105.523 312.681,137.523 313.5,169.5C 312.541,175.128 311.875,180.794 311.5,186.5C 312.144,200.169 312.811,213.835 313.5,227.5C 311.884,260.236 309.718,292.902 307,325.5C 305.701,326.98 304.034,327.646 302,327.5C 295.87,326.395 289.703,325.562 283.5,325C 242.152,324.623 200.818,323.623 159.5,322C 128.652,321.425 97.819,321.925 67,323.5C 49.8087,323.119 32.6421,322.286 15.5,321C 14.2095,318.168 13.5428,315.168 13.5,312C 15.1233,281.258 14.1233,250.591 10.5,220C 11.7859,201.33 13.1193,182.664 14.5,164C 12.2505,149.42 11.2505,134.754 11.5,120C 12.7814,94.6832 13.7814,69.3499 14.5,44C 14.4044,36.4871 14.0711,28.9871 13.5,21.5C 13.4777,19.0351 13.9777,16.7017 15,14.5C 24.3983,13.025 33.8983,12.025 43.5,11.5C 69.9848,12.7733 96.4848,13.7733 123,14.5C 149.01,13.7712 175.01,12.7712 201,11.5C 226.505,12.7317 252.005,12.565 277.5,11C 283.4,10.7897 289.066,9.95633 294.5,8.5 Z"/></g>
<g><path style="opacity:0.542" fill="#000000" d="M 83.5,69.5 C 88.0847,68.5919 90.418,70.4252 90.5,75C 86.7374,81.2017 83.7374,87.8684 81.5,95C 79.6512,105.764 79.1512,116.598 80,127.5C 77.8471,129.444 75.3471,129.944 72.5,129C 71.8095,127.933 71.3095,126.766 71,125.5C 70.3333,115.833 70.3333,106.167 71,96.5C 72.4928,86.1855 76.6595,77.1855 83.5,69.5 Z"/></g>
<g><path style="opacity:0.549" fill="#000000" d="M 243.5,72.5 C 246.518,72.3354 249.518,72.502 252.5,73C 259.287,80.4669 264.453,88.9669 268,98.5C 268.667,106.5 268.667,114.5 268,122.5C 266.356,125.311 264.19,127.644 261.5,129.5C 255.549,123.652 253.882,116.652 256.5,108.5C 256.404,97.3115 252.238,87.9781 244,80.5C 243.503,77.854 243.336,75.1873 243.5,72.5 Z"/></g>
<g><path style="opacity:0.568" fill="#000000" d="M 113.5,95.5 C 122.439,94.5884 127.939,98.5884 130,107.5C 131.62,122.267 125.286,131.6 111,135.5C 100.686,134.188 95.8528,128.354 96.5,118C 96.4846,112.562 97.6512,107.396 100,102.5C 102.674,100.129 105.841,98.9628 109.5,99C 110.731,97.5952 112.064,96.4286 113.5,95.5 Z"/></g>
<g><path style="opacity:0.568" fill="#000000" d="M 218.5,95.5 C 223.05,94.8843 227.05,96.051 230.5,99C 235.203,99.1179 239.036,100.951 242,104.5C 242.875,109.333 243.708,114.166 244.5,119C 243.135,131.539 236.135,136.539 223.5,134C 211.331,126.16 207.497,115.327 212,101.5C 213.494,98.6865 215.66,96.6865 218.5,95.5 Z"/></g>
<g><path style="opacity:0.532" fill="#000000" d="M 158.5,168.5 C 166.195,167.38 168.861,170.547 166.5,178C 167.771,184.522 169.104,191.022 170.5,197.5C 167.292,204.87 163.459,205.203 159,198.5C 157.99,190.685 157.157,182.851 156.5,175C 156.875,172.711 157.541,170.545 158.5,168.5 Z"/></g>
<g><path style="opacity:0.581" fill="#000000" d="M 176.5,210.5 C 189.377,209.357 197.544,215.023 201,227.5C 203.448,251.775 193.948,269.608 172.5,281C 160.975,283.32 152.141,279.486 146,269.5C 139.859,241.109 150.025,221.443 176.5,210.5 Z"/></g>
<g><path style="opacity:0.6" fill="#f2f2f2" d="M 172.5,225.5 C 177.223,224.553 181.056,225.886 184,229.5C 185.688,232.525 187.021,235.525 188,238.5C 186.004,240.059 183.671,240.726 181,240.5C 175.113,240.102 169.28,239.435 163.5,238.5C 162.686,236.048 163.186,233.715 165,231.5C 167.114,228.879 169.614,226.879 172.5,225.5 Z"/></g>
</svg>
