<?xml version="1.0" encoding="UTF-8"?>
<!DOCTYPE svg PUBLIC "-//W3C//DTD SVG 1.1//EN" "http://www.w3.org/Graphics/SVG/1.1/DTD/svg11.dtd">
<svg xmlns="http://www.w3.org/2000/svg" version="1.1" width="331px" height="345px" style="shape-rendering:geometricPrecision; text-rendering:geometricPrecision; image-rendering:optimizeQuality; fill-rule:evenodd; clip-rule:evenodd" xmlns:xlink="http://www.w3.org/1999/xlink">
<g><path style="opacity:0.555" fill="#000000" d="M 280.5,-0.5 C 293.5,-0.5 306.5,-0.5 319.5,-0.5C 323.69,1.86718 325.857,5.53385 326,10.5C 327.701,32.3112 329.201,53.9778 330.5,75.5C 330.5,93.5 330.5,111.5 330.5,129.5C 329.167,150.833 329.167,172.167 330.5,193.5C 330.5,212.167 330.5,230.833 330.5,249.5C 329.551,275.704 328.051,302.037 326,328.5C 325.601,335.654 322.434,340.988 316.5,344.5C 310.833,344.5 305.167,344.5 299.5,344.5C 295.079,343.055 290.412,342.222 285.5,342C 227.133,343.149 168.8,342.316 110.5,339.5C 93.6481,340.225 76.8148,341.225 60,342.5C 42.4833,341.543 24.9833,340.376 7.5,339C 3.70938,337.498 2.04271,334.665 2.5,330.5C 5.89109,299.204 4.89109,268.204 -0.5,237.5C -0.5,225.167 -0.5,212.833 -0.5,200.5C 3.39804,180.829 3.39804,161.163 -0.5,141.5C -0.5,129.5 -0.5,117.5 -0.5,105.5C 0.968997,99.0264 2.13566,92.3597 3,85.5C 3.43653,59.4927 3.43653,33.4927 3,7.5C 3.5,5.66667 4.66667,4.5 6.5,4C 24.7708,2.18727 43.1041,1.0206 61.5,0.5C 76.4822,1.55405 91.4822,2.22072 106.5,2.5C 150.836,-0.0257531 195.17,-0.0257531 239.5,2.5C 253.3,1.30462 266.967,0.30462 280.5,-0.5 Z M 302.5,8.5 C 307.742,7.27055 311.575,8.93722 314,13.5C 316.516,42.6185 318.349,71.7851 319.5,101C 318.604,155.495 318.438,209.995 319,264.5C 318.375,287.002 316.375,309.335 313,331.5C 311.53,333.152 309.697,334.152 307.5,334.5C 293.542,330.573 279.375,329.573 265,331.5C 215.675,330.079 166.342,328.745 117,327.5C 97.9823,328.167 78.9823,329.167 60,330.5C 44.8351,329.396 29.6684,328.396 14.5,327.5C 15.4494,308.508 15.6161,289.508 15,270.5C 10.5005,234.522 10.3339,198.522 14.5,162.5C 13.1715,150.862 12.1715,139.195 11.5,127.5C 13.9014,90.2093 15.0681,52.8759 15,15.5C 16.3988,14.7734 17.8988,14.2734 19.5,14C 29.5,13.5 39.5,13 49.5,12.5C 101.852,15.8163 154.185,15.8163 206.5,12.5C 231.172,13.7011 255.839,13.5344 280.5,12C 288.126,11.7938 295.46,10.6271 302.5,8.5 Z"/></g>
<g><path style="opacity:0.565" fill="#000000" d="M 78.5,105.5 C 82.3465,105.545 86.0131,106.378 89.5,108C 100.985,120.614 115.318,127.281 132.5,128C 134.881,129.509 135.881,131.675 135.5,134.5C 133.187,144.663 127.52,152.496 118.5,158C 101.951,167.948 84.9505,168.948 67.5,161C 61.4495,156.766 59.6161,151.266 62,144.5C 64.9654,141.082 68.4654,140.582 72.5,143C 82.8188,151.1 93.4855,151.434 104.5,144C 95.6667,135.167 86.8333,126.333 78,117.5C 77.3064,113.446 77.4731,109.446 78.5,105.5 Z"/></g>
<g><path style="opacity:0.563" fill="#000000" d="M 247.5,107.5 C 250.119,107.232 252.619,107.565 255,108.5C 255.854,112.625 255.52,116.625 254,120.5C 245.5,128.333 237,136.167 228.5,144C 233.363,147.678 238.863,149.844 245,150.5C 250.405,149.383 255.572,147.549 260.5,145C 264.166,143.729 266.666,144.896 268,148.5C 269.041,156.9 265.541,162.734 257.5,166C 238.61,170.259 222.443,165.425 209,151.5C 202.938,144.98 200.271,137.313 201,128.5C 202.214,126.951 203.714,125.785 205.5,125C 217.239,125.655 227.905,122.655 237.5,116C 240.461,112.524 243.794,109.691 247.5,107.5 Z"/></g>
<g><path style="opacity:0.549" fill="#000000" d="M 171.5,158.5 C 173.5,158.5 175.5,158.5 177.5,158.5C 177.974,161.921 177.974,165.255 177.5,168.5C 180.533,173.54 179.533,177.706 174.5,181C 178.433,185.465 179.933,190.632 179,196.5C 176.5,198.333 174,200.167 171.5,202C 175.218,206.45 175.218,210.784 171.5,215C 168.15,215.93 165.317,215.097 163,212.5C 159.934,207.608 157.101,202.608 154.5,197.5C 156.089,192.703 159.422,190.37 164.5,190.5C 164.649,189.448 164.483,188.448 164,187.5C 161.413,184.587 159.246,181.42 157.5,178C 160.036,173.246 161.203,168.079 161,162.5C 164.415,160.644 167.915,159.311 171.5,158.5 Z"/></g>
<g><path style="opacity:0.567" fill="#000000" d="M 182.5,238.5 C 191.517,239.759 199.684,243.092 207,248.5C 213.641,245.965 220.474,244.298 227.5,243.5C 233.262,244.141 238.929,245.308 244.5,247C 248.37,252.605 250.203,258.771 250,265.5C 249.25,266.126 248.416,266.626 247.5,267C 239.21,266.121 230.877,265.788 222.5,266C 212.702,273.021 202.369,274.021 191.5,269C 187.655,265.82 183.822,262.653 180,259.5C 166.481,267.561 152.481,268.561 138,262.5C 123.245,264.893 108.412,266.059 93.5,266C 91.6041,264.192 91.1041,262.025 92,259.5C 95.8405,256.188 96.0072,253.022 92.5,250C 93,249.5 93.5,249 94,248.5C 102.421,249.649 110.921,249.816 119.5,249C 125.881,244.784 132.881,243.451 140.5,245C 144.491,246.108 148.325,247.608 152,249.5C 161.759,244.306 171.925,240.639 182.5,238.5 Z"/></g>
</svg>
