<?xml version="1.0" encoding="UTF-8"?>
<!DOCTYPE svg PUBLIC "-//W3C//DTD SVG 1.1//EN" "http://www.w3.org/Graphics/SVG/1.1/DTD/svg11.dtd">
<svg xmlns="http://www.w3.org/2000/svg" version="1.1" width="337px" height="343px" style="shape-rendering:geometricPrecision; text-rendering:geometricPrecision; image-rendering:optimizeQuality; fill-rule:evenodd; clip-rule:evenodd" xmlns:xlink="http://www.w3.org/1999/xlink">
<g><path style="opacity:0.547" fill="#000000" d="M 285.5,-0.5 C 298.833,-0.5 312.167,-0.5 325.5,-0.5C 329.69,1.86718 331.857,5.53385 332,10.5C 333.728,32.9756 335.228,55.309 336.5,77.5C 336.5,104.833 336.5,132.167 336.5,159.5C 335.167,177.167 335.167,194.833 336.5,212.5C 336.5,228.833 336.5,245.167 336.5,261.5C 334.693,286.694 332.859,312.028 331,337.5C 329.941,339.659 328.441,341.326 326.5,342.5C 312.167,342.5 297.833,342.5 283.5,342.5C 281.167,341.167 278.833,341.167 276.5,342.5C 274.5,342.5 272.5,342.5 270.5,342.5C 269.048,341.698 267.382,341.198 265.5,341C 249.968,340.131 234.634,340.631 219.5,342.5C 213.167,342.5 206.833,342.5 200.5,342.5C 154.344,338.838 108.011,338.504 61.5,341.5C 45.1677,340.771 28.8344,339.937 12.5,339C 6.95796,339.579 3.62463,337.246 2.5,332C 3.08028,329.542 3.41362,327.042 3.5,324.5C 2.72561,299.843 2.22561,275.176 2,250.5C 1.47703,245.638 0.643695,240.972 -0.5,236.5C -0.5,224.167 -0.5,211.833 -0.5,199.5C 3.39541,180.173 3.39541,160.84 -0.5,141.5C -0.5,129.833 -0.5,118.167 -0.5,106.5C 1.05846,97.0275 2.22512,87.3609 3,77.5C 3.77754,55.8216 3.61088,34.155 2.5,12.5C 1.84962,8.63718 3.18295,5.80384 6.5,4C 39.8308,2.32191 73.1642,2.15524 106.5,3.5C 150.985,0.29093 195.485,-0.0424037 240,2.5C 255.346,1.87129 270.512,0.871285 285.5,-0.5 Z M 308.5,7.5 C 311.728,7.29945 314.895,7.63278 318,8.5C 319.477,9.44402 320.477,10.7774 321,12.5C 324.179,42.8017 326.346,73.1351 327.5,103.5C 326.039,120.962 325.372,138.462 325.5,156C 327.931,214.605 326.431,273.105 321,331.5C 319.137,333.949 316.637,334.949 313.5,334.5C 302.193,333.077 290.86,331.91 279.5,331C 191.16,328.968 102.827,327.968 14.5,328C 13.709,291.04 12.3756,254.04 10.5,217C 10.5047,198.78 11.5047,180.614 13.5,162.5C 12.0615,151.871 11.0615,141.204 10.5,130.5C 11.987,92.1779 13.1536,53.8446 14,15.5C 14.5,15 15,14.5 15.5,14C 27.4942,13.0837 39.4942,12.2504 51.5,11.5C 70.4747,12.8663 89.4747,13.5329 108.5,13.5C 136.003,12.9443 163.503,12.2777 191,11.5C 223.843,12.9798 256.676,12.8132 289.5,11C 296.084,10.4606 302.417,9.29394 308.5,7.5 Z"/></g>
<g><path style="opacity:0.548" fill="#000000" d="M 102.5,52.5 C 104.5,52.5 106.5,52.5 108.5,52.5C 108.665,55.8499 108.498,59.1832 108,62.5C 88.8258,85.0194 66.1592,103.019 40,116.5C 37.3318,115.33 34.9984,113.663 33,111.5C 32.3653,109.365 32.6986,107.365 34,105.5C 49.3333,94.5701 64.8333,83.7368 80.5,73C 88.1063,66.2188 95.4397,59.3855 102.5,52.5 Z"/></g>
<g><path style="opacity:0.55" fill="#000000" d="M 212.5,52.5 C 214.857,52.3367 217.19,52.5034 219.5,53C 230.443,76.9429 247.776,94.6095 271.5,106C 274.572,108.809 276.905,112.142 278.5,116C 274.691,117.588 270.691,117.922 266.5,117C 239.233,105.9 220.233,86.7336 209.5,59.5C 209.695,56.7819 210.695,54.4486 212.5,52.5 Z"/></g>
<g><path style="opacity:0.542" fill="#000000" d="M 100.5,95.5 C 102.429,95.2308 104.095,95.7308 105.5,97C 103.683,98.7998 102.516,100.966 102,103.5C 101.559,110.196 101.559,116.863 102,123.5C 99.6234,130.211 95.1234,132.378 88.5,130C 86.1603,128.16 84.1603,125.993 82.5,123.5C 76.6695,127.583 70.6695,131.416 64.5,135C 61.6213,135.874 58.9546,135.54 56.5,134C 57.8333,131.667 59.1667,129.333 60.5,127C 73.7328,116.255 87.0661,105.755 100.5,95.5 Z"/></g>
<g><path style="opacity:0.553" fill="#000000" d="M 206.5,103.5 C 207.873,103.343 209.207,103.51 210.5,104C 212.871,106.706 215.537,109.039 218.5,111C 227.977,115.487 236.644,121.153 244.5,128C 242.067,130.133 239.233,131.3 236,131.5C 230.611,130.537 225.444,128.87 220.5,126.5C 218.34,128.831 216.34,131.331 214.5,134C 206.739,137.735 202.739,135.401 202.5,127C 203.04,122.413 204.04,117.913 205.5,113.5C 203.879,109.865 204.212,106.531 206.5,103.5 Z"/></g>
<g><path style="opacity:0.529" fill="#000000" d="M 150.5,155.5 C 151.885,156.574 153.051,157.907 154,159.5C 154.816,168.079 154.649,176.579 153.5,185C 154.605,189.706 157.605,191.706 162.5,191C 163.5,193.091 162.833,194.757 160.5,196C 154.576,199.389 149.409,198.556 145,193.5C 144.55,183.15 144.883,172.817 146,162.5C 147.012,159.798 148.512,157.465 150.5,155.5 Z"/></g>
<g><path style="opacity:0.542" fill="#000000" d="M 155.5,218.5 C 173.991,216.04 188.657,222.207 199.5,237C 207.078,239.913 208.078,244.08 202.5,249.5C 195.026,247.537 189.026,243.371 184.5,237C 169.709,227.786 155.376,228.453 141.5,239C 135.889,245.278 131.056,252.112 127,259.5C 124.508,261.497 121.675,262.497 118.5,262.5C 118.335,259.15 118.502,255.817 119,252.5C 124.613,240.888 132.446,231.055 142.5,223C 146.715,220.763 151.048,219.263 155.5,218.5 Z"/></g>
</svg>
