<svg xmlns="http://www.w3.org/2000/svg" width="192" height="199" fill="none" viewBox="0 0 192 199">
  <g clip-path="url(#a)" opacity=".6">
    <path fill="#000" d="M190.87 30.193c.375 9.519.975 21.194 1.125 32.794.075 6.396-.675 12.791-1.05 19.26-.075 1.265 0 2.455 0 3.719l.45 24.019c.15 6.619.375 13.312.3 19.93-.15 11.229-.375 22.458-.825 33.687-.299 7.882-1.274 15.765-1.574 23.647-.299 9.742-3.747 12.791-13.566 11.452-2.099-.297-4.123-.892-6.221-1.115-2.924-.297-5.922-.446-8.92-.521-3.823-.074-7.645-.148-11.468-.074-6.596 0-13.117.149-19.713.149-10.118.074-20.237.595-30.281.149-19.413-.818-38.751-2.157-58.24 0-6.895.743-13.94-.298-20.911-.595-4.198-.149-8.47-.447-12.667-.744-4.498-.297-5.472-1.339-5.172-5.8.375-6.396 1.274-12.791 1.199-19.186-.3-9.073-.375-18.219-1.874-26.994-1.874-10.634-1.724-21.194-.6-31.679.975-8.403 1.275-16.658.225-25.06-1.349-11.007-1.724-22.087.525-33.167 1.124-5.726 1.05-11.824 1.05-17.773 0-9.37-.375-18.74-.675-28.11-.15-4.61.824-5.726 5.471-5.949C17.428 1.786 27.321.968 37.29.894c7.12-.075 14.166 1.264 21.287 1.19 14.84-.15 29.682-1.19 44.448-1.265 12.742-.074 25.409.818 38.151 1.19 2.623.075 5.172-.446 7.795-.743.225 0 .45-.15.75-.223C160.739.67 171.682.15 182.7 0c4.198-.074 6.147 2.752 6.447 6.693.524 7.14 1.049 14.278 1.723 23.5ZM8.133 189.406c3.448.223 6.521.446 9.594.595 7.495.372 14.99 1.413 22.411.818 14.841-1.116 29.532-1.487 44.448-.669 15.815.892 31.63.223 47.446.446 7.195.074 14.391.669 21.586.967.75 0 1.499.223 2.249.074 6.146-1.116 12.068-.595 18.139.892 8.47 2.008 8.694 0 9.219-6.841.6-8.478 1.724-16.955 2.099-25.433.45-9.741.45-19.483.45-29.225 0-6.692-.675-13.311-.675-20.003-.075-6.396.45-12.791.45-19.112 0-3.198-.6-6.395-.525-9.593.075-9.593.825-19.186.525-28.779-.45-14.054-1.499-28.11-2.324-42.164-.375-5.8-2.323-7.288-8.095-6.098-.974.223-1.874.67-2.848.818-4.347.446-8.62.818-12.967 1.116-3.073.148-6.146.074-9.219.148-4.872.15-9.669.521-14.541.447-5.322-.075-10.719-.744-16.041-.595-13.791.372-27.657 1.487-41.449 1.487-14.916 0-29.907-.967-44.822-1.19-7.796-.297-15.366.298-22.936.67-.675.074-1.95 1.264-1.95 1.933-.074 4.462.3 8.924.226 13.385-.075 8.255-.075 16.51-.45 24.764-.375 9.37-1.499 18.74-1.574 28.109-.075 5.131 1.724 10.188 1.799 15.319.075 6.47-.6 13.014-1.274 19.483-1.424 13.014-.45 25.879 1.05 38.818.824 7.213.899 14.575.899 21.863.074 5.726-.525 11.526-.9 17.55Z"/>
    <path fill="#000" d="M94.747 148.065c13.02-9.015 16.274-9.237 24.737-1.892 3.092-1.335 6.021-3.116 9.439-3.784 2.278-.445 6.347.445 7.486 1.67.976 1.113-.163 3.784-1.465 5.231-2.278 2.226-5.696 3.895-8.137 6.01-6.509 5.565-12.205 5.231-17.087-1.224-.489-.557-.814-1.225-1.465-2.115-6.51 3.45-9.765 11.798-18.715 7.012-5.859.779-11.718 2.448-12.857 1.447-3.58-3.117-5.533-7.235-7.974-10.908 3.255-.89 6.672-1.669 9.927-2.56.326.557.651 1.113.814 1.781 4.72-4.897 9.927-4.786 15.297-.668Zm85.052-86.733c-1.797 1.516-2.743 2.842-4.067 3.411-13.052 6.348-26.198 12.6-39.439 18.664-1.324.569-3.499-.663-5.296-1.042.851-1.8 1.229-4.453 2.648-5.21 5.864-3.033 12.011-5.401 17.97-8.149a3747.944 3747.944 0 0 0 19.105-8.81c1.513-.664 3.215-1.517 4.823-1.517 1.23.095 2.365 1.422 4.256 2.653ZM77.057 79.534c-.974 3.68-2.823 4.718-5.743 3.585-3.31-1.32-6.521-2.736-9.733-4.15-10.317-4.907-20.635-9.625-30.855-14.72-1.46-.754-2.14-2.924-3.114-4.434 1.947-.377 4.38-1.604 5.84-.944 13.237 5.473 26.28 11.322 39.322 17.172 1.752.755 3.017 2.453 4.283 3.491Zm73.351 8.216c-.825 3.793-1.199 6.842-2.099 9.742-1.124 3.495-5.021 4.09-7.269 1.19-2.098-2.752-2.698-5.8-.6-8.924.975-1.413 1.949-2.974 3.298-4.015 1.199-.893 3.297-1.934 4.421-1.562 1.125.52 1.724 2.677 2.249 3.57Zm-81.462 5.503c-1.349 2.529-2.023 4.685-3.447 6.173-1.874 2.007-5.321 1.338-6.146-1.265-1.049-3.495-1.573-7.139-1.948-10.782-.075-1.042.9-2.9 1.798-3.198 1.125-.372 3.148.149 3.897 1.04 2.174 2.38 3.822 5.206 5.846 8.032Zm33.199 25.805c0 2.305.225 4.685-.075 6.99-.15 1.116-1.424 2.082-2.173 3.049-.974-.818-2.323-1.487-2.698-2.528-.6-1.562-.6-3.347-.6-5.057 0-2.826.225-5.652.3-8.478.075-2.007-.524-4.759 2.623-4.759 3.073 0 2.548 2.826 2.698 4.759.075 2.083-.075 4.09-.075 6.024Z"/>
  </g>
  <defs>
    <clipPath id="a">
      <path fill="#fff" d="M0 0h192v199H0z"/>
    </clipPath>
  </defs>
</svg>
