<?xml version="1.0" encoding="UTF-8"?>
<!DOCTYPE svg PUBLIC "-//W3C//DTD SVG 1.1//EN" "http://www.w3.org/Graphics/SVG/1.1/DTD/svg11.dtd">
<svg xmlns="http://www.w3.org/2000/svg" version="1.1" width="308px" height="321px" style="shape-rendering:geometricPrecision; text-rendering:geometricPrecision; image-rendering:optimizeQuality; fill-rule:evenodd; clip-rule:evenodd" xmlns:xlink="http://www.w3.org/1999/xlink">
<g><path style="opacity:0.553" fill="#000000" d="M 259.5,-0.5 C 272.167,-0.5 284.833,-0.5 297.5,-0.5C 300.542,1.22405 302.375,3.89071 303,7.5C 304.7,27.9758 306.2,48.3091 307.5,68.5C 307.5,86.1667 307.5,103.833 307.5,121.5C 306.167,140.5 306.167,159.5 307.5,178.5C 307.5,197.167 307.5,215.833 307.5,234.5C 306.535,259.038 305.035,283.705 303,308.5C 302.341,314.187 299.508,318.187 294.5,320.5C 289.167,320.5 283.833,320.5 278.5,320.5C 273.414,318.983 268.081,318.15 262.5,318C 234.497,317.433 206.497,317.6 178.5,318.5C 154.002,317.761 129.502,317.094 105,316.5C 88.4684,316.457 71.9684,317.123 55.5,318.5C 38.7761,317.977 22.1094,316.81 5.5,315C 2.98737,312.604 1.98737,309.604 2.5,306C 5.5565,277.543 4.5565,249.377 -0.5,221.5C -0.5,209.167 -0.5,196.833 -0.5,184.5C 0.985604,176.217 1.65227,167.717 1.5,159C 1.65227,150.283 0.985604,141.783 -0.5,133.5C -0.5,121.167 -0.5,108.833 -0.5,96.5C 1.21639,89.7294 2.38305,82.7294 3,75.5C 3.57684,57.4954 3.41018,39.4954 2.5,21.5C 2.66667,16.5 2.83333,11.5 3,6.5C 3.37424,5.58377 3.87424,4.75044 4.5,4C 35.2531,0.123918 66.0864,-0.376082 97,2.5C 139.504,-0.0395547 182.004,-0.0395547 224.5,2.5C 236.3,1.27718 247.967,0.277185 259.5,-0.5 Z M 283.5,7.5 C 287.493,7.24471 290.326,8.91138 292,12.5C 293.831,31.1228 295.164,49.7895 296,68.5C 296.208,104.694 296.041,140.861 295.5,177C 297.937,206.147 298.104,235.313 296,264.5C 294.991,279.287 293.325,293.954 291,308.5C 289.352,310.028 287.352,310.695 285,310.5C 272.62,307.556 260.12,306.889 247.5,308.5C 240.187,307.773 232.853,307.273 225.5,307C 186.332,306.589 147.165,306.089 108,305.5C 90.468,305.389 72.968,306.056 55.5,307.5C 41.4965,306.421 27.4965,305.421 13.5,304.5C 14.4142,287.508 14.5809,270.508 14,253.5C 9.52693,219.356 9.36026,185.189 13.5,151C 12.3898,140.34 11.3898,129.673 10.5,119C 12.8935,84.2109 14.0602,49.3776 14,14.5C 15.3988,13.7734 16.8988,13.2734 18.5,13C 27.6769,12.6662 36.8435,12.1662 46,11.5C 94.832,14.1261 143.665,14.1261 192.5,11.5C 216.171,12.6666 239.838,12.5 263.5,11C 270.463,10.7709 277.13,9.60427 283.5,7.5 Z"/></g>
<g><path style="opacity:0.546" fill="#000000" d="M 49.5,93.5 C 52.6473,93.7366 55.6473,94.5699 58.5,96C 78.2497,104.472 97.9164,113.139 117.5,122C 119.684,124.016 121.684,126.183 123.5,128.5C 122.667,130.167 121.833,131.833 121,133.5C 116.676,134.884 112.509,134.384 108.5,132C 88.0454,122.606 67.7121,112.94 47.5,103C 45.7905,101.084 44.4572,98.9176 43.5,96.5C 45.444,95.1993 47.444,94.1993 49.5,93.5 Z"/></g>
<g><path style="opacity:0.54" fill="#000000" d="M 278.5,93.5 C 282.62,93.56 285.953,95.2266 288.5,98.5C 286.35,100.149 284.35,101.982 282.5,104C 261.621,114.273 240.621,124.273 219.5,134C 208.779,135.389 206.779,131.889 213.5,123.5C 235.377,113.725 257.044,103.725 278.5,93.5 Z"/></g>
<g><path style="opacity:0.537" fill="#000000" d="M 93.5,134.5 C 95.9892,134.298 98.3225,134.798 100.5,136C 104.575,140.156 107.909,144.822 110.5,150C 109.052,154.919 106.386,158.919 102.5,162C 98.5072,162.753 95.6738,161.253 94,157.5C 91.2843,149.768 91.1176,142.101 93.5,134.5 Z"/></g>
<g><path style="opacity:0.546" fill="#000000" d="M 234.5,134.5 C 238.354,135.136 240.687,137.469 241.5,141.5C 240.271,146.475 239.105,151.475 238,156.5C 234.049,164.105 229.382,164.439 224,157.5C 221.281,147.038 224.781,139.371 234.5,134.5 Z"/></g>
<g><path style="opacity:0.549" fill="#000000" d="M 156.5,173.5 C 159.044,173.104 161.211,173.771 163,175.5C 163.667,185.167 163.667,194.833 163,204.5C 160.812,209.172 158.146,209.172 155,204.5C 154.333,194.833 154.333,185.167 155,175.5C 155.717,174.956 156.217,174.289 156.5,173.5 Z"/></g>
<g><path style="opacity:0.565" fill="#000000" d="M 170.5,226.5 C 178.66,226.078 185.66,228.745 191.5,234.5C 196.884,231.638 202.551,229.638 208.5,228.5C 212.271,228.65 215.771,229.65 219,231.5C 219.497,234.847 218.663,237.847 216.5,240.5C 209.582,246.25 202.249,251.417 194.5,256C 189.56,257.041 184.894,256.374 180.5,254C 177.622,251.291 174.956,248.458 172.5,245.5C 167.255,250.246 161.588,254.412 155.5,258C 150.841,258.816 146.341,258.316 142,256.5C 135.534,257.941 129.034,258.774 122.5,259C 116.352,253.637 112.352,247.304 110.5,240C 114.211,239.156 117.877,238.156 121.5,237C 123.568,236.313 125.568,236.48 127.5,237.5C 131.035,234.733 135.035,233.066 139.5,232.5C 143.847,233.392 147.847,235.058 151.5,237.5C 157.634,233.338 163.967,229.672 170.5,226.5 Z"/></g>
</svg>
