<svg xmlns="http://www.w3.org/2000/svg" width="192" height="199" fill="none" viewBox="0 0 192 199">
  <g clip-path="url(#a)" opacity=".6">
    <path fill="#000" d="M190.876 30.192c.375 9.519.974 21.194 1.124 32.795.075 6.395-.674 12.79-1.049 19.26-.075 1.265 0 2.454 0 3.719.15 8.031.3 15.988.449 24.019.15 6.619.375 13.312.3 19.93-.15 11.229-.374 22.458-.824 33.687-.3 7.883-1.274 15.766-1.574 23.648-.3 9.742-3.747 12.791-13.564 11.453-2.099-.298-4.122-.893-6.22-1.116-2.923-.297-5.921-.446-8.918-.52-3.822-.075-7.645-.149-11.467-.075-6.594 0-13.114.149-19.709.149-10.117.074-20.234.595-30.277.149-19.41-.818-38.744-2.157-58.229 0-6.895.743-13.94-.298-20.909-.595-4.196-.149-8.468-.446-12.665-.744-4.496-.297-5.47-1.338-5.17-5.8.374-6.396 1.273-12.791 1.198-19.186-.3-9.073-.374-18.22-1.873-26.995-1.874-10.634-1.724-21.194-.6-31.679.975-8.403 1.274-16.658.225-25.061C-.225 76.224-.6 65.143 1.65 54.063 2.773 48.337 2.698 42.24 2.698 36.29c0-9.37-.375-18.74-.675-28.11-.15-4.61.825-5.726 5.471-5.949C17.461 1.785 27.354.967 37.321.892c7.12-.074 14.164 1.265 21.283 1.19 14.839-.148 29.677-1.19 44.44-1.264 12.741-.074 25.406.818 38.146 1.19 2.623.074 5.171-.446 7.794-.744.224 0 .449-.149.749-.223C160.749.67 171.691.15 182.707 0c4.197-.074 6.145 2.752 6.445 6.693.525 7.139 1.049 14.278 1.724 23.5ZM8.169 189.407c3.447.223 6.52.446 9.592.595 7.494.372 14.988 1.413 22.408.818 14.838-1.116 29.526-1.487 44.44-.669 15.813.892 31.625.223 47.438.446 7.194.074 14.389.669 21.583.967.749 0 1.499.223 2.248.074 6.145-1.116 12.066-.595 18.136.892 8.468 2.008 8.693 0 9.218-6.841.599-8.478 1.723-16.955 2.098-25.433.45-9.742.45-19.484.45-29.225 0-6.693-.675-13.312-.675-20.004-.075-6.396.45-12.791.45-19.112 0-3.198-.6-6.396-.525-9.593.075-9.593.825-19.186.525-28.78-.45-14.054-1.499-28.11-2.323-42.164-.375-5.8-2.323-7.288-8.094-6.098-.974.223-1.873.67-2.848.818-4.346.446-8.618.818-12.964 1.115-3.073.15-6.146.075-9.218.15-4.871.148-9.668.52-14.539.445-5.321-.074-10.717-.743-16.037-.595-13.79.372-27.654 1.488-41.443 1.488-14.913 0-29.902-.967-44.815-1.19-7.794-.298-15.363.297-22.932.67-.675.074-1.949 1.263-1.949 1.933-.075 4.461.3 8.923.225 13.385-.075 8.255-.075 16.51-.45 24.764-.374 9.37-1.498 18.74-1.573 28.11-.075 5.13 1.723 10.188 1.798 15.319.075 6.47-.6 13.014-1.274 19.483-1.423 13.014-.45 25.879 1.05 38.819.824 7.213.899 14.575.899 21.863.075 5.726-.525 11.526-.9 17.55Z"/>
    <path fill="#000" d="M88.335 144.815c16.976-8.399 21.145-8.469 31.689-.732 4.002-1.19 7.812-2.832 12.206-3.34 2.928-.338 10.392 3.34 9.506 2.019 1.207 1.158 4.785 9.399 3.067 10.784-2.995 2.118-12.558-1.999-15.757 0-8.527 5.257-15.795 4.656-21.796-2.023-.604-.579-.995-1.262-1.794-2.182-8.449 3.143-12.64 7.383-23.904 2.182-7.518.504-25.135 3.078-26.554 2.023-4.46-3.282 2.984-4.72 0-8.504 4.194-.738-4.193-.222 0-.959.396.571 13.575.008 13.758.683 6.215-4.673 12.867-4.317 19.579.049Zm12.588-40.545c4.895 7.609 4.689 9.178-1.422 11.955.595 1.675 1.522 3.347 1.612 5.065.06 1.146-1.02 2.915-2.008 3.25-.892.277-2.645-.698-3.519-1.548-1.312-1.438-2.107-3.321-3.323-4.818-3.192-3.978-2.323-6.604 2.764-7.843.446-.138.952-.182 1.651-.342-1.703-3.631-7.215-6.534-2.851-9.962.104-2.885-.419-5.918.413-6.29 2.592-1.173 5.707-1.416 8.564-1.962.264 1.678.432 3.415.696 5.093-.428.062-.856.124-1.344.09 2.921 3.027 2.263 5.46-1.233 7.312Zm31.042-20.74c5.574 3.343 11.21 5.702 17.61 1.29 1.225-.778 4.134-1.077 4.848-.498 1.121 1.354 2.07 4.194 1.38 5.407-1.381 2.427-3.569 4.937-5.926 5.832-11.945 4.491-28.127-3.475-32.493-15.593-1.636-4.728.001-7.834 4.916-7.686 8.198.3 14.409-2.786 19.995-8.746 1.03-1.085 3.683-.705 5.622-.904.057 2.116.878 5.295-.152 6.38-4.862 5.07-10.276 9.543-15.8 14.517Zm-70.097.09c-6.227 2.874-12.46 4.758-19.099-.184-1.275-.881-4.398-1.423-5.205-.904-1.294 1.258-2.494 4.016-1.824 5.286 1.341 2.54 3.55 5.23 6.04 6.322 12.623 5.488 30.591-1.116 36.055-12.857 2.058-4.587.483-7.826-4.835-8.09-8.872-.387-15.39-3.99-21.054-10.412-1.045-1.17-3.934-1.012-6.016-1.374-.192 2.109-1.276 5.217-.23 6.387 4.938 5.472 10.508 10.394 16.168 15.826Z"/>
  </g>
  <defs>
    <clipPath id="a">
      <path fill="#fff" d="M0 0h192v199H0z"/>
    </clipPath>
  </defs>
</svg>
