<svg xmlns="http://www.w3.org/2000/svg" width="192" height="199" fill="none" viewBox="0 0 192 199">
  <g clip-path="url(#a)" opacity=".6">
    <path fill="#000" d="M191.096 27.324c.226 15.314.678 30.702.678 46.016 0 13.361-.603 26.648-.678 40.01 0 6.23.979 12.461.753 18.691-.602 17.791-1.657 35.657-2.485 53.447-.151 2.627-.151 5.255-.377 7.882-.226 3.003-1.582 5.405-4.971 5.555-4.068.15-8.211.15-12.278.075-4.369-.075-8.662-.375-13.031-.525-1.281-.075-2.561.45-3.766.225-13.408-3.078-26.74.75-40.073.075-12.127-.601-24.254-1.501-36.456-1.577-12.052-.075-24.028.751-36.08.901-7.382.15-14.764-.075-22.145-.3-4.37-.15-8.738-.525-13.107-.826-4.82-.375-5.423-1.126-5.122-5.78 1.055-14.563 1.205-29.125-.15-43.763-.302-3.453-.98-6.906-1.356-10.359-1.28-10.66.075-21.169 1.205-31.678.527-4.654-.075-9.459-.452-14.188-.98-12.46-2.034-24.697.301-37.007 1.13-5.93 1.13-12.161 1.13-18.316.076-9.609-.301-19.217-.678-28.75-.075-2.928.754-4.58 3.842-4.73C17.249 1.877 28.623.976 39.997.976c10.394 0 20.79 1.426 31.184 1.351C83.08 2.252 94.983.976 106.884.751c10.244-.15 20.564.6 30.808.75 3.992.075 7.984-.225 11.976-.375 3.088-.075 6.252-.15 9.34-.3 4.444-.225 8.964-.6 13.408-.75 3.691-.151 7.457-.076 11.148.074s5.272 2.477 5.498 5.93c.528 7.057 1.13 14.188 1.657 21.244h.377Zm-4.067 21.844c-1.13-14.187-2.185-26.123-3.089-38.058-.452-6.38-1.732-7.582-8.059-6.756-1.206.15-2.411.75-3.616.9-3.992.451-7.909.901-11.901 1.127-3.842.225-7.683.225-11.525.3-4.142.075-8.21.3-12.353.3-9.641-.15-19.282-.75-28.924-.6-15.893.3-31.787 1.276-47.755 1.426-9.416.075-18.756-1.051-28.171-1.126-7.231-.075-14.462.525-21.769.75-2.109.076-2.41 1.277-2.335 3.003.302 5.705.98 11.485.753 17.19-.602 12.686-2.033 25.373-2.56 38.134-.302 7.807.527 15.689.979 23.496.301 4.729 1.13 9.383 1.054 14.112-.075 3.678-1.43 7.356-1.657 11.035-.753 10.359-.452 20.643.527 31.002 1.13 12.386.678 24.922.904 37.383.076 2.702-.904 6.38.528 7.957 1.28 1.426 5.046.826 7.758.901 7.909.375 15.893 1.726 23.651.9 22.522-2.402 44.818-.45 67.265.451 6.477.3 13.031.225 19.584-.075 8.737-.451 17.475-1.802 26.212.225 1.808.45 3.766-.075 5.65.075 5.197.375 10.394.826 15.592 1.201 1.883.15 3.766.45 5.574.45 2.862.075 4.444-1.201 4.519-4.203.075-2.853.377-5.705.527-8.633.829-14.187 1.808-28.375 2.486-42.637.602-12.461-1.959-24.922.226-37.383.527-2.853-.226-5.93-.452-8.933-.226-2.703-.829-5.48-.753-8.182.226-12.686.753-25.298 1.13-35.732Z"/>
    <path fill="#000" d="M38.415 82.948c-.603-9.233 3.465-16.89 8.36-24.171 3.165-4.654 8.362-4.279 12.43-3.153 12.051 3.303 17.023 13.061 13.859 25.297-.15.6-.377 1.201-.452 1.802-.829 11.485-8.738 17.04-18.002 21.394-3.842 1.801-9.115.075-11.901-3.829-2.938-4.053-4.52-8.557-4.37-13.662.076-1.126.076-2.402.076-3.678Zm7.984-11.035c.829.45 2.185 1.802 3.54 1.877 3.089.225 8.738-5.18 7.458-7.056-1.28-1.952-4.143-3.303-6.554-3.979-2.335-.525-4.594 3.753-4.444 9.158Zm1.959 14.788c.527-.225.979-.525 1.506-.75-.828-1.577-1.582-3.228-2.636-4.654-.15-.15-2.636.675-2.712 1.276-.602 2.852 1.733 3.453 3.842 4.128Zm102.289-2.327c-.075 7.282-3.615 11.86-8.21 15.464-9.189 7.056-21.241 2.327-23.727-9.083-1.958-8.858-1.431-17.566 1.281-26.198.903-3.003 1.807-6.156 6.402-4.58 1.281.451 3.088-.825 4.67-.975 7.231-.45 14.99 5.78 17.475 14.262 1.13 3.904 1.582 8.033 2.109 11.11ZM133.699 68.61c-2.335 2.553-1.506 6.981 1.356 7.957.678.226 1.883-.075 2.26-.525.452-.6.603-1.952.226-2.552-1.13-1.727-2.486-3.228-3.842-4.88Zm-47.906 50.37c.528-3.604.904-7.582 1.883-11.41.302-1.126 2.034-1.952 3.164-2.853.527 1.351 1.507 2.702 1.507 3.979 0 2.852-.754 5.705-.829 8.557-.075 2.778-.753 6.306 4.218 5.18.226-.075.753 1.501 1.13 2.327-1.958.825-3.992 2.552-5.875 2.327-1.582-.15-3.314-2.177-4.444-3.754-.678-.975-.452-2.627-.754-4.353ZM32.269 54.77c-.846-.64-2.539-2.051-4.23-3.462 1.208-1.666 2.296-4.36 3.746-4.744 7.373-1.41 12.329-5.514 15.35-12.695 1.089-2.436 2.539-5 4.352-6.796.967-1.026 3.384-1.154 4.714-.513.967.513 1.813 2.821 1.692 4.232-.967 9.489-13.175 22.312-22.24 23.594-.604.128-1.209.128-3.384.385Zm122.383 1.825c-10.386.151-21.885-12.413-22.38-23.615-.124-2.12 1.855-4.541 2.844-6.812 1.731 1.211 4.822 2.12 5.193 3.785 1.978 9.536 7.419 13.775 14.343 16.954 1.607.757 3.091 3.784 3.215 6.055-.124 1.362-2.597 2.876-3.215 3.633Zm-51.117 93.158c-2.985 1.211-5.08 2.585-8.007 3.201-1.852.421-5.304.236-7.054-.385-1.167-.414-1.532-2.853-.436-3.272 4.852-1.781 9.888-3.919 15.677-4.483 6.4-.654 9.967 2.997 12.732 5.593 1.385 1.262.001 3.079-.151 4.642-2.498-.694-5.002-1.313-7.186-2.126-1.885-.784-3.293-1.822-5.575-3.17Z"/>
    <path fill="#fff" d="M46.4 71.913c-.151-5.48 2.108-9.683 4.519-9.083 2.41.6 5.273 2.027 6.553 3.979 1.205 1.801-4.444 7.206-7.457 7.056-1.431-.15-2.787-1.501-3.615-1.952Zm1.958 14.788c-2.11-.675-4.444-1.276-3.842-4.203.151-.601 2.637-1.427 2.712-1.277 1.054 1.427 1.808 3.078 2.636 4.654-.527.3-.979.601-1.506.826ZM133.7 68.61c1.28 1.577 2.711 3.153 3.841 4.88.377.6.226 1.876-.226 2.552-.301.525-1.582.75-2.26.525-2.862-.975-3.69-5.404-1.355-7.957Z"/>
  </g>
  <defs>
    <clipPath id="a">
      <path fill="#fff" d="M0 0h192v199H0z"/>
    </clipPath>
  </defs>
</svg>
