<svg xmlns="http://www.w3.org/2000/svg" width="191" height="199" fill="none" viewBox="0 0 191 199">
  <g clip-path="url(#a)" opacity=".6">
    <path fill="#000" d="M2.234 184.328c0-11.395.149-22.789-.075-34.11-.074-4.543-.893-9.086-1.489-13.629-1.414-11.022-.149-21.97 1.34-32.918.447-3.054.298-6.256-.149-9.235C.075 82.296-.446 70.23.745 58.09c.893-8.862 1.786-17.725 2.084-26.588.224-7.522-.446-15.118-.67-22.64-.149-5.81.075-5.884 5.956-6.405 16.602-1.34 33.13-1.043 49.731-.447 15.71.596 31.418-.968 47.126-1.117 10.87-.075 21.814.968 32.683.819C148.971 1.564 160.287.447 171.603 0a66.36 66.36 0 0 1 12.136.67c3.052.447 3.722 3.203 3.945 6.033.521 8.267 1.117 16.534 1.489 24.8.521 13.853.968 27.631 1.34 41.484.224 8.415.298 16.831.224 25.172-.075 6.331-.745 12.587-.745 18.917 0 7.448.894 14.896.596 22.269-.596 15.938-1.713 31.801-2.606 47.739-.074.745-.149 1.489-.149 2.234 0 7.746-1.191 9.384-9.455 9.533-10.274.223-20.622-1.266-30.97-1.713-6.403-.223-12.88.372-19.282.372-11.242 0-22.558.298-33.8-.297-17.718-.894-35.363-1.564-53.081.149-7.966.744-16.081-.447-24.122-.82-3.573-.149-7.147-.372-10.795-.521-2.903-.075-4.318-1.415-4.094-4.394.149-2.458 0-4.99 0-7.448-.075.149-.075.149 0 .149Zm30.523 7.075c3.35-.149 7.52-.446 11.763-.595 11.242-.298 22.558-.894 33.8-.745 12.135.149 24.27 1.489 36.331 1.638 15.931.224 31.863-.298 47.795-.372 2.68 0 5.361.745 8.041 1.192 2.308.372 4.616.819 6.923.968 2.829.149 4.393-1.117 4.244-4.171-.149-2.011-.074-4.022.149-5.958 2.233-18.098 2.903-36.195 2.754-54.442-.074-8.863.149-17.8.149-26.662 0-3.203-.223-6.405-.297-9.682-.149-4.543-.298-9.16-.298-13.704 0-12.586.372-25.247 0-37.834-.298-9.607-1.713-19.215-2.308-28.822-.447-6.777-1.191-7.671-7.966-6.703-.596.075-1.191.298-1.787.373-11.39.819-22.855 2.01-34.246 2.234-11.018.223-22.037-.894-33.055-.745-13.773.15-27.471 1.639-41.244 1.415-17.496-.372-34.917-2.085-52.412-.372-1.563.149-3.052-.075-2.978 2.234.075 3.873.223 7.671.149 11.544-.149 10.278.298 20.555-.744 30.759C6.18 65.91 5.732 78.72 7.965 91.68c.968 5.66-.223 11.767-.521 17.651-.372 7.522-1.414 15.044-1.191 22.566.298 10.352 1.861 20.704 2.308 31.057.298 8.117-.224 16.31-.447 24.502-.074 1.639 0 2.905 2.233 2.979 7.148.149 14.369.596 22.41.968Z"/>
    <path fill="#000" d="M135.942 54.814c3.351.075 6.552 2.384 9.306 5.363 1.787 1.862 3.5 3.947 4.765 6.181.521.968-.149 2.607-.298 3.947-1.191-.52-2.68-.819-3.573-1.638-2.159-2.01-3.871-4.543-6.179-6.33-5.361-4.097-10.87-2.682-14.22 3.276-1.042 1.862-2.085 3.724-3.499 5.214-.67.67-2.457 1.117-3.201.67-.745-.447-1.34-2.16-1.117-3.053 2.233-8.118 9.083-13.48 18.016-13.63ZM71.098 69.263c-.596.893-.893 1.936-1.489 2.16-.744.297-2.159.297-2.68-.224-1.415-1.415-2.829-3.053-3.574-4.84-2.605-6.331-8.933-8.417-14.517-4.171-2.457 1.787-4.244 4.468-6.477 6.553-.819.82-2.159 1.118-3.201 1.639-.15-1.266-.968-3.203-.372-3.798 3.275-3.65 6.402-7.671 10.422-10.278 5.658-3.575 14.741-.075 17.794 5.883 1.265 2.31 2.68 4.618 4.094 7.076ZM53.305 79.987c4.764 0 8.264 2.086 9.231 5.884.224 1.043-.297 2.979-1.042 3.277-.819.372-2.68-.075-3.425-.894-3.796-4.17-5.583-4.245-9.306-.298-.744.745-2.233.745-3.424 1.043-.298-1.34-1.042-2.756-.745-3.873.82-2.83 5.137-5.213 8.71-5.139Zm82.861-.893c2.457 1.638 5.211 2.979 7.296 4.99.819.819.893 3.649.149 4.542-1.489 1.788-2.829.298-4.095-1.191-2.68-3.352-5.956-3.054-8.562.223-.744.968-2.531 1.117-3.871 1.639-.223-1.415-.968-2.98-.521-4.17 1.34-3.576 4.467-5.14 9.604-6.033Zm-47.722 81.402c-2.68-1.862-5.36-3.5-7.742-5.511-.521-.447-.373-2.384.149-3.203.372-.521 2.382-.745 2.903-.298 3.946 3.799 7.966 2.979 12.284.671.67-.373 2.68.297 2.978.968.372.819-.075 2.755-.819 3.128-2.903 1.564-6.03 2.681-9.753 4.245Zm.596-58.762c1.117 1.862 2.085 2.756 2.308 3.873.968 4.841 1.861 9.682 2.382 14.597.075.82-1.489 2.756-2.159 2.607-1.34-.223-3.424-1.266-3.573-2.16-.67-5.139-.82-10.352-1.042-15.565.074-.745 1.042-1.639 2.084-3.352Z"/>
  </g>
  <defs>
    <clipPath id="a">
      <path fill="#fff" d="M0 0h190.662v199H0z"/>
    </clipPath>
  </defs>
</svg>
