<?xml version="1.0" encoding="UTF-8"?>
<!DOCTYPE svg PUBLIC "-//W3C//DTD SVG 1.1//EN" "http://www.w3.org/Graphics/SVG/1.1/DTD/svg11.dtd">
<svg xmlns="http://www.w3.org/2000/svg" version="1.1" width="343px" height="358px" style="shape-rendering:geometricPrecision; text-rendering:geometricPrecision; image-rendering:optimizeQuality; fill-rule:evenodd; clip-rule:evenodd" xmlns:xlink="http://www.w3.org/1999/xlink">
<g><path style="opacity:0.558" fill="#000000" d="M 290.5,-0.5 C 303.167,-0.5 315.833,-0.5 328.5,-0.5C 333.266,-0.012251 336.1,2.65442 337,7.5C 339.528,40.9526 341.361,74.2859 342.5,107.5C 342.5,138.5 342.5,169.5 342.5,200.5C 341.167,207.167 341.167,213.833 342.5,220.5C 342.5,236.5 342.5,252.5 342.5,268.5C 340.616,295.674 338.783,323.007 337,350.5C 335.134,354.216 332.301,356.55 328.5,357.5C 318.5,357.5 308.5,357.5 298.5,357.5C 284.705,355.753 270.705,354.753 256.5,354.5C 210.99,355.757 165.49,355.424 120,353.5C 100.804,353.406 81.6377,354.073 62.5,355.5C 44.1611,354.421 25.8277,353.254 7.5,352C 6.06919,351.535 4.90252,350.701 4,349.5C 3.66667,323.833 3.33333,298.167 3,272.5C 2.71821,262.583 1.55155,252.917 -0.5,243.5C -0.5,231.833 -0.5,220.167 -0.5,208.5C 0.980313,198.667 2.31365,188.667 3.5,178.5C 2.31365,168.333 0.980313,158.333 -0.5,148.5C -0.5,135.167 -0.5,121.833 -0.5,108.5C 4.35495,77.0888 5.35495,45.4222 2.5,13.5C 2.41835,10.2427 3.41835,7.40941 5.5,5C 10.4164,3.83943 15.4164,3.17276 20.5,3C 51.9884,1.38553 83.4884,1.21887 115,2.5C 157.672,0.277439 200.339,0.277439 243,2.5C 259.02,1.9856 274.853,0.985604 290.5,-0.5 Z M 311.5,9.5 C 315.182,9.3347 318.848,9.50137 322.5,10C 323.701,10.9025 324.535,12.0692 325,13.5C 326.931,31.4726 328.597,49.4726 330,67.5C 330.865,129.833 331.199,192.166 331,254.5C 330.411,284.594 328.411,314.594 325,344.5C 323.53,346.152 321.697,347.152 319.5,347.5C 312.471,346.528 305.471,345.361 298.5,344C 272.659,343.249 246.826,343.416 221,344.5C 191.822,343.421 162.655,342.088 133.5,340.5C 108.326,341.3 83.159,342.3 58,343.5C 43.8257,342.793 29.6591,341.96 15.5,341C 15.3465,322.91 15.1798,304.743 15,286.5C 13.1702,268.706 12.0035,250.873 11.5,233C 12.2444,213.655 13.2444,194.322 14.5,175C 10.7787,146.192 10.612,117.359 14,88.5C 14.3333,64.5 14.6667,40.5 15,16.5C 16.7337,15.7511 18.567,15.2511 20.5,15C 30.6497,14.1565 40.8164,13.6565 51,13.5C 73.4913,14.473 95.9913,15.1397 118.5,15.5C 143,14.8158 167.5,14.1491 192,13.5C 232.114,15.8284 271.948,14.4951 311.5,9.5 Z"/></g>
<g><path style="opacity:0.529" fill="#000000" d="M 94.5,97.5 C 104.394,97.4057 112.561,101.072 119,108.5C 121.968,113.602 124.801,118.769 127.5,124C 126.407,128.206 123.74,129.539 119.5,128C 114.997,122.65 110.997,116.983 107.5,111C 101.192,106.489 94.8585,106.489 88.5,111C 83.2369,117.102 77.2369,122.268 70.5,126.5C 68.7773,124.053 68.2773,121.387 69,118.5C 73.1329,113.366 77.6329,108.532 82.5,104C 86.1574,101.008 90.1574,98.8412 94.5,97.5 Z"/></g>
<g><path style="opacity:0.537" fill="#000000" d="M 239.5,97.5 C 245.392,97.1388 250.726,98.6388 255.5,102C 262.038,107.195 267.038,113.529 270.5,121C 270.062,122.92 269.395,124.754 268.5,126.5C 266.459,125.764 264.459,124.931 262.5,124C 258.605,119.194 254.272,114.86 249.5,111C 243.467,106.536 237.467,106.536 231.5,111C 227.307,116.36 223.307,121.86 219.5,127.5C 212.337,129.576 209.837,126.909 212,119.5C 217.254,107.06 226.421,99.7271 239.5,97.5 Z"/></g>
<g><path style="opacity:0.525" fill="#000000" d="M 240.5,141.5 C 247.157,142.746 252.99,145.746 258,150.5C 260,153.5 260,156.5 258,159.5C 253.429,161.309 250.262,159.809 248.5,155C 242.976,151.884 238.309,153.051 234.5,158.5C 232.271,159.577 229.937,160.244 227.5,160.5C 225.107,154.032 226.773,148.865 232.5,145C 235.309,143.907 237.976,142.74 240.5,141.5 Z"/></g>
<g><path style="opacity:0.531" fill="#000000" d="M 93.5,142.5 C 101.908,142.002 108.075,145.335 112,152.5C 113.668,158.493 111.502,160.993 105.5,160C 103.385,157.8 101.051,155.8 98.5,154C 93.3884,152.886 89.3884,154.553 86.5,159C 84.567,159.251 82.7337,159.751 81,160.5C 78.1215,154.61 79.2882,149.776 84.5,146C 87.4588,144.396 90.4588,143.229 93.5,142.5 Z"/></g>
<g><path style="opacity:0.532" fill="#000000" d="M 158.5,182.5 C 160.988,183.74 162.821,185.74 164,188.5C 166.51,198.039 167.843,207.706 168,217.5C 165.855,220.928 163.021,221.428 159.5,219C 157.996,217.509 157.163,215.676 157,213.5C 156,204.846 155.667,196.179 156,187.5C 157.094,185.922 157.928,184.255 158.5,182.5 Z"/></g>
<g><path style="opacity:0.527" fill="#000000" d="M 144.5,271.5 C 146.527,271.338 148.527,271.505 150.5,272C 153.575,274.453 157.075,275.953 161,276.5C 165.4,275.859 169.566,274.526 173.5,272.5C 178.847,273.705 179.847,276.538 176.5,281C 170.749,283.695 164.915,286.195 159,288.5C 153.738,285.574 148.738,282.241 144,278.5C 143.444,276.115 143.61,273.782 144.5,271.5 Z"/></g>
</svg>
