<svg xmlns="http://www.w3.org/2000/svg" width="192" height="199" fill="none" viewBox="0 0 192 199">
  <g clip-path="url(#a)" opacity=".6">
    <path fill="#000" d="M190.053 26.821c.374 3.204.973 6.408.973 9.611.15 14.23.075 28.46.15 42.617 0 4.172.225 8.419.375 12.59.075 2.832.374 5.663.374 8.569 0 12.591.225 25.257-.225 37.848-.599 15.944-1.722 31.813-2.621 47.757-.074.745-.074 1.49-.074 2.235.074 8.568-.674 10.058-11.532 10.952-1.199.074-2.472-.075-3.67-.373-5.616-1.415-11.232-2.011-16.998-.968-2.247.372-4.643-.447-7.039-.447-6.665-.075-13.404 0-20.069 0-10.708 0-21.416.223-32.124-.075-18.796-.521-37.517-1.937-56.387.149-7.114.82-14.453-.298-21.642-.596-3.819-.149-7.713-.447-11.532-.67-5.391-.224-5.915-1.118-5.69-6.557.523-16.316 1.497-32.558-1.199-48.874-2.097-12.293-.749-24.661.824-36.954.374-3.055.45-6.184 0-9.239C0 80.241-.225 66.01 1.722 51.631c1.273-9.462.75-19.222.824-28.833 0-5.588-.524-11.175-.6-16.689 0-2.83 2.098-3.8 4.569-3.948 7.937-.447 15.95-1.118 23.887-1.043 15.052.074 30.103 1.043 45.155.894C90.159 1.937 104.686.745 119.214.447c6.664-.149 13.404 1.192 20.143 1.118 10.484-.15 20.967-1.044 31.526-1.49 4.268-.15 8.611-.224 12.88 0 3.22.223 4.792 2.458 5.017 5.513.599 7.003 1.123 14.081 1.647 21.084-.075.15-.224.15-.374.15Zm-4.268 17.807h-.3c-.15-2.608-.15-5.215-.374-7.823-.674-8.642-1.573-17.285-2.097-25.853-.3-5.364-1.647-6.78-7.114-6.035-1.348.15-2.621.82-3.969.894-4.343.447-8.611.82-12.954 1.043-2.921.15-5.916.075-8.837.15-4.343.148-8.686.67-13.029.595-6.141-.074-12.206-.894-18.272-.745-13.329.298-26.658 1.416-39.912 1.416-12.58.149-25.011-.969-37.517-1.118-10.408-.074-20.892.447-31.3.894-.6 0-1.723 1.416-1.723 2.236-.15 3.948.075 7.971.075 11.92-.15 9.835.374 19.818-.674 29.578-1.423 13.336-2.097 26.524.449 39.86.974 5.14.749 10.654-.15 15.869C6.14 118.685 6.14 129.86 7.19 141.11c.973 10.58 1.422 21.234 1.872 31.814.15 4.842-.375 9.611-.674 14.453-.15 2.31.749 3.055 3.07 2.757 1.947-.224 3.969.074 5.916.149 7.862.298 15.65.82 23.513.82 14.527 0 29.13-.447 43.657-.522a6259.27 6259.27 0 0 1 52.717 0c4.344 0 8.687.447 13.03.671 9.211.521 18.571-.373 27.707 2.086 3.07.819 5.242-.969 4.942-4.62-.15-1.862 0-3.725.15-5.587.898-18.775 1.947-37.55 2.696-56.4.224-5.96-.45-11.846-.45-17.806 0-3.8.674-7.674.749-11.474.075-8.27-.15-16.54-.224-24.81-.15-9.462-.075-18.7-.075-28.013Z"/>
    <path fill="#000" d="M52.592 66.401c-4.193-1.415-6.814.894-9.21 4.098-.674.894-2.172 1.192-3.295 1.788-.075-1.341-.674-2.98-.15-4.023 3.894-7.898 13.779-7.823 18.421-4.024 2.471 2.012 2.022 8.643-.674 10.133-2.47 1.266-4.268.075-4.942-2.235-.524-1.714-.15-3.576-.15-5.737Zm93.946 6.423c-5.092-1.863-8.237-.968-11.308 2.757-.524.67-1.647.894-2.546 1.34-.299-1.191-1.198-2.681-.748-3.5 2.171-4.248 6.365-5.44 10.633-5.663 3.594-.224 7.114.968 8.312 4.917.674 2.086.749 4.545.374 6.63-.449 2.087-2.321 3.354-4.642 2.385-2.472-1.043-2.996-3.204-2.172-5.588.3-1.117 1.273-2.011 2.097-3.278Z"/>
    <path fill="#000" d="M53.354 44.784c9.352-.542 16.472 3.934 22.753 9.901 1.396 1.356.977 4.612 1.536 7.053-2.094-.678-4.746-.814-6.282-2.17-10.47-9.765-22.195-10.58-33.781-2.035-2.513 1.9-5.305 5.019-7.957 1.221-.698-1.085 1.535-5.56 3.49-6.646 6.281-3.39 12.982-5.967 19.543-8.951.279.542.558 1.085.698 1.627Zm36.431 52.295c.224-3.353.374-6.631.823-9.984.075-.82 1.198-1.564 1.798-2.384.748.894 2.021 1.713 2.021 2.608.3 4.544.225 9.164.3 13.708 0 1.118.225 2.161.3 3.278.074 1.044.673 2.459.224 3.055-.45.671-2.246 1.118-2.92.745-1.049-.521-2.097-1.862-2.247-2.98-.3-2.682-.075-5.439-.075-8.12-.075.074-.15.074-.224.074Zm53.617-52.124c5.777 3.972 11.082 7.477 16.27 11.332.589.467.589 2.92-.118 3.621-.59.701-2.712.818-3.655.35-2.122-1.05-3.89-2.57-5.777-3.971-6.602-4.79-15.797-4.09-22.164 1.168-1.296 1.051-3.89.818-5.776 1.051.471-1.986.471-5.257 1.65-5.724 6.131-2.804 12.497-5.023 19.57-7.827Zm-21.297 101.357c-3.511 1.044-5.523 2.002-7.949 2.323-5.971.766-12.338 1.196-18.504 1.853-4.858.522-10.486.729-14.185 1.784-6.474 1.816-8.619.5-10.753-.637-2.715-1.404-1.317-3.226 4.293-3.732 12.901-1.228 25.82-2.158 38.932-2.978 2.058-.18 4.557.756 8.166 1.387Z"/>
  </g>
  <defs>
    <clipPath id="a">
      <path fill="#fff" d="M0 0h192v199H0z"/>
    </clipPath>
  </defs>
</svg>
