<?xml version="1.0" encoding="UTF-8"?>
<!DOCTYPE svg PUBLIC "-//W3C//DTD SVG 1.1//EN" "http://www.w3.org/Graphics/SVG/1.1/DTD/svg11.dtd">
<svg xmlns="http://www.w3.org/2000/svg" version="1.1" width="319px" height="332px" style="shape-rendering:geometricPrecision; text-rendering:geometricPrecision; image-rendering:optimizeQuality; fill-rule:evenodd; clip-rule:evenodd" xmlns:xlink="http://www.w3.org/1999/xlink">
<g><path style="opacity:0.553" fill="#000000" d="M 189.5,-0.5 C 194.833,-0.5 200.167,-0.5 205.5,-0.5C 226.161,2.04202 246.828,2.04202 267.5,-0.5C 281.167,-0.5 294.833,-0.5 308.5,-0.5C 310.696,0.854084 312.196,2.85408 313,5.5C 314.699,21.9233 316.032,38.2567 317,54.5C 317.168,85.6694 317.668,116.669 318.5,147.5C 318.5,178.5 318.5,209.5 318.5,240.5C 316.616,268.34 314.783,296.34 313,324.5C 310.596,328.567 307.096,330.9 302.5,331.5C 297.167,331.5 291.833,331.5 286.5,331.5C 281.263,329.817 275.763,328.817 270,328.5C 242.013,328.224 214.013,328.558 186,329.5C 142.989,327.125 99.989,327.125 57,329.5C 40.1257,328.852 23.2924,327.685 6.5,326C 3.45495,323.899 2.12161,320.899 2.5,317C 3.61723,295.179 3.7839,273.346 3,251.5C 2.42048,243.273 1.25381,235.273 -0.5,227.5C -0.5,215.833 -0.5,204.167 -0.5,192.5C 3.32554,172.509 3.32554,152.509 -0.5,132.5C -0.5,123.833 -0.5,115.167 -0.5,106.5C 3.5035,76.9248 4.5035,47.0914 2.5,17C 2.66667,13.5 2.83333,10 3,6.5C 4.00803,4.74096 5.50803,3.57429 7.5,3C 21.4891,1.99258 35.4891,1.15924 49.5,0.5C 96.3498,3.46763 143.016,3.1343 189.5,-0.5 Z M 293.5,7.5 C 297.21,7.22465 300.043,8.55799 302,11.5C 304.052,30.4564 305.719,49.4564 307,68.5C 307.344,95.5032 307.844,122.503 308.5,149.5C 308.538,160.22 307.871,170.887 306.5,181.5C 307.356,224.876 306.022,268.21 302.5,311.5C 303.963,314.252 303.796,316.919 302,319.5C 300.527,321.007 298.693,321.674 296.5,321.5C 290.863,320.473 285.197,319.639 279.5,319C 216.854,316.2 154.187,315.7 91.5,317.5C 66.155,317.513 40.8217,317.013 15.5,316C 14.1955,315.196 13.5288,314.029 13.5,312.5C 14.2055,305.176 14.8722,297.842 15.5,290.5C 14.029,264.159 12.3623,237.826 10.5,211.5C 11.27,195.779 12.6033,180.112 14.5,164.5C 12.6512,149.722 11.3178,134.888 10.5,120C 11.8958,99.6516 13.2291,79.3183 14.5,59C 13.8581,51.7006 13.5248,44.3673 13.5,37C 13.3659,29.4002 13.8659,21.9002 15,14.5C 31.0609,12.7998 47.2276,11.7998 63.5,11.5C 108,14.1384 152.5,14.1384 197,11.5C 221.506,12.7499 246.006,12.5832 270.5,11C 278.437,10.7007 286.104,9.53407 293.5,7.5 Z"/></g>
<g><path style="opacity:0.546" fill="#000000" d="M 84.5,71.5 C 101.39,72.3612 115.556,79.0279 127,91.5C 128.237,95.0601 128.737,98.7267 128.5,102.5C 125.012,102.295 121.679,101.461 118.5,100C 106.136,87.1006 91.4695,83.4339 74.5,89C 67.8324,91.6628 61.8324,95.3295 56.5,100C 51.8593,101.651 49.1926,100.151 48.5,95.5C 48.8908,92.2187 50.2241,89.3854 52.5,87C 63.1358,81.5139 73.8024,76.3472 84.5,71.5 Z"/></g>
<g><path style="opacity:0.541" fill="#000000" d="M 235.5,74.5 C 236.873,74.3433 238.207,74.51 239.5,75C 247.972,80.6387 256.305,86.472 264.5,92.5C 267.204,99.6301 264.871,102.13 257.5,100C 252.503,96.1661 247.17,92.8328 241.5,90C 235.167,88 228.833,88 222.5,90C 217.976,92.0936 213.642,94.427 209.5,97C 207.19,97.4966 204.857,97.6633 202.5,97.5C 202.071,93.5413 203.071,90.0413 205.5,87C 215.56,82.7102 225.56,78.5435 235.5,74.5 Z"/></g>
<g><path style="opacity:0.536" fill="#000000" d="M 77.5,102.5 C 84.2916,101.667 90.6249,102.834 96.5,106C 99.92,110.789 100.42,115.956 98,121.5C 94.3333,125.5 90.6667,125.5 87,121.5C 86.5014,117.848 86.3347,114.182 86.5,110.5C 79.8384,109.659 74.8384,112.159 71.5,118C 69.8333,118.833 68.1667,119.667 66.5,120.5C 64.703,115.371 65.703,110.871 69.5,107C 72.0993,105.205 74.7659,103.705 77.5,102.5 Z"/></g>
<g><path style="opacity:0.529" fill="#000000" d="M 229.5,112.5 C 246.292,109.13 253.459,115.797 251,132.5C 248.176,137.028 244.51,137.695 240,134.5C 237.873,129.917 238.373,125.583 241.5,121.5C 237.915,119.184 234.248,119.018 230.5,121C 227.257,123.917 223.757,126.417 220,128.5C 218,125.167 218,121.833 220,118.5C 222.843,115.837 226.009,113.837 229.5,112.5 Z"/></g>
<g><path style="opacity:0.519" fill="#000000" d="M 152.5,140.5 C 155.74,142.113 157.24,144.78 157,148.5C 157.232,158.023 157.732,167.523 158.5,177C 156.765,180.768 154.098,181.435 150.5,179C 149.874,178.25 149.374,177.416 149,176.5C 148.181,165.461 148.514,154.461 150,143.5C 151.045,142.627 151.878,141.627 152.5,140.5 Z"/></g>
<g><path style="opacity:0.523" fill="#000000" d="M 186.5,240.5 C 206.159,241.559 206.826,244.059 188.5,248C 167.551,249.662 146.718,252.162 126,255.5C 123.409,255.435 120.909,254.935 118.5,254C 115.11,252.994 114.11,250.994 115.5,248C 117.715,246.956 120.048,246.29 122.5,246C 143.984,244.131 165.318,242.297 186.5,240.5 Z"/></g>
</svg>
