<svg xmlns="http://www.w3.org/2000/svg" width="192" height="199" fill="none" viewBox="0 0 192 199">
  <g clip-path="url(#a)" opacity=".6">
    <path fill="#000" d="M2.033 184.759c0-11.993.15-23.91-.075-35.903-.076-3.822-.98-7.645-1.43-11.467-1.356-11.018-.076-21.887 1.28-32.755.526-4.047.074-8.245-.377-12.292-1.356-12.667-1.883-25.26-.076-38.001 1.43-9.819 1.13-19.863 1.356-29.831.075-5.697-.302-11.468-.678-17.24-.226-3.298.979-4.722 4.216-4.722 14.382-.224 28.838-1.274 43.144-.524 18.899.974 37.572-.9 56.395-1.2 11.144-.15 22.287 1.05 33.431.9C150.438 1.574 161.581.524 172.8 0c3.614-.15 7.228 0 10.842.225 3.69.225 5.271 2.548 5.497 5.921.527 6.82 1.129 13.642 1.506 20.537.602 12.068 1.054 24.135 1.43 36.277.151 3.898-.075 7.72-.15 11.618-.301 13.042-.753 26.084-.828 39.126 0 8.469 1.129 16.939.903 25.409-.452 15.065-1.581 30.131-2.409 45.121-.151 2.848-.226 5.772-.377 8.62-.226 3.373-1.656 5.846-5.346 6.071-3.99.15-7.906.075-11.896 0-4.367-.15-8.659-.45-13.026-.6-1.28-.075-2.56.525-3.765.225-12.875-2.998-25.75.6-38.55 0-13.026-.599-26.052-1.574-39.078-1.724-11.37-.15-22.814.75-34.184.975-7.378.15-14.757.075-22.136-.15-4.894-.15-9.713-.75-14.607-.975-3.313-.149-4.819-1.499-4.367-4.872.301-2.323.301-4.722.452-7.12-.377.075-.527.075-.678.075ZM187.03 58.539h-.979c0-6.822.301-13.717-.075-20.538-.528-9.369-1.582-18.663-2.259-27.957-.377-4.797-.979-5.547-5.873-5.472-1.28 0-2.485.15-3.69.45-12.423 2.698-25.073 1.724-37.647 2.098-9.863.3-19.802-.674-29.666-.45-15.66.226-31.322 1.275-46.908 1.425-10.014 0-20.028-1.05-30.042-1.2-6.099-.074-12.273.825-18.372.825-3.087 0-3.99.6-3.99 3.823 0 13.941-.226 27.882-.528 41.823-.226 8.545-.978 17.165-.978 25.71 0 4.796 1.58 9.593 1.58 14.39 0 6.446-.978 12.817-1.355 19.263-.677 10.718-.602 21.362.377 32.08 1.28 13.716.828 27.583.979 41.449.075 5.247-.076 5.172 5.42 5.097 1.958 0 3.992.449 6.024.449 8.66.075 17.243.225 25.902.075 11.294-.149 22.588-.824 33.807-.674 17.016.15 34.033.824 51.049 1.199 6.249.15 12.499-.075 18.748-.075 3.991 0 7.982.075 11.897.3 4.066.3 8.207.824 12.273 1.274 2.259.225 4.442.675 6.701.75 2.861.075 4.367-1.275 4.367-4.348 0-2.773.376-5.471.527-8.244.828-13.792 1.807-27.583 2.409-41.449.302-6.221-.15-12.517-.225-18.739-.226-13.191-.603-26.383-.527-39.5 0-7.945.677-15.89 1.054-23.835Z"/>
    <path fill="#000" d="M60.085 56.493c-3.464 4.198-2.41 8.545-1.883 13.042.377 2.848-.978 5.921-4.442 6.446-3.765.6-5.045-2.398-5.722-4.947-3.69 2.474-7.304 5.097-11.069 7.346-1.054.6-2.86 0-4.291-.075.753-1.35 1.204-3.074 2.334-3.973 5.722-4.947 11.595-9.669 17.543-14.466 1.883-1.499 3.916-2.773 5.873-4.197.527.3 1.054.6 1.657.824Zm65.28 16.736c-2.485 4.947-5.045 6.67-7.831 5.172-2.786-1.5-2.334-5.847.226-11.318-.151-2.099-1.129-5.322-.151-5.996 2.636-1.874 3.69 1.574 5.572 2.773 3.991 2.623 8.282 4.797 12.348 7.345 1.431.9 2.56 2.174 3.84 3.223-1.506.75-3.162 2.324-4.517 2.024-3.163-.6-6.099-2.024-9.487-3.223ZM22.883 67.826c-1.768-1.568-4.16-2.927-4.056-3.868.208-1.568 1.872-3.24 3.224-4.39.936-.837 2.808-.628 3.744-1.464C35.466 48.8 48.57 43.677 56.68 32.386c.832-1.15 3.328-1.15 5.096-1.672 0 1.882.832 4.495-.104 5.645-4.472 5.123-9.256 10.14-14.455 14.636-4.68 4.182-9.984 7.736-15.08 11.395-2.703 1.882-5.72 3.346-9.255 5.436Zm101.42-37.11c.773.77 2.428 1.868 2.98 3.296 5.189 12.852 14.793 21.42 26.826 27.792.662.33 1.435.66 1.876 1.209.994 1.538 1.877 3.185 2.76 4.833-1.987.11-4.305 1.099-5.851.33-12.584-5.383-23.182-13.073-29.254-25.815-.883-1.758-2.097-3.406-3.091-5.163-1.766-3.076-.11-6.591 3.754-6.482ZM93.515 111.68c-2.033 2.998-4.668 3.673-7.454 3.073-2.786-.675-3.388-2.998-3.237-5.622.3-4.872.376-9.743.903-14.54.15-1.35 1.732-2.549 2.635-3.823.678 1.35 1.883 2.698 1.883 4.047.075 3.973-.15 8.02-.452 11.993-.226 2.998.527 4.572 3.84 4.197.452-.075.904.3 1.882.675Zm-.743 16.098c7.95-.151 15.024 1.032 20.281 9.544.618 1.001 2.043.974 2.96 1.868.763.695 1.84 2.194 1.626 2.806-.279 1.12-1.525 2.764-2.052 2.673-2.112-.669-4.45-1.334-5.983-3.128-9.051-10.871-23.155-10.806-31.724.601-2.052 2.673-3.643 5.945-5.697 8.517-.953 1.234-2.6 1.366-3.94 2-.035-1.924-.608-4.548.045-5.776 6.168-11.463 13.275-20.817 24.484-19.105Z"/>
  </g>
  <defs>
    <clipPath id="a">
      <path fill="#fff" d="M0 0h192v199H0z"/>
    </clipPath>
  </defs>
</svg>
