<?xml version="1.0" encoding="UTF-8"?>
<!DOCTYPE svg PUBLIC "-//W3C//DTD SVG 1.1//EN" "http://www.w3.org/Graphics/SVG/1.1/DTD/svg11.dtd">
<svg xmlns="http://www.w3.org/2000/svg" version="1.1" width="315px" height="327px" style="shape-rendering:geometricPrecision; text-rendering:geometricPrecision; image-rendering:optimizeQuality; fill-rule:evenodd; clip-rule:evenodd" xmlns:xlink="http://www.w3.org/1999/xlink">
<g><path style="opacity:0.545" fill="#000000" d="M 267.5,-0.5 C 279.833,-0.5 292.167,-0.5 304.5,-0.5C 307.542,1.22405 309.375,3.89071 310,7.5C 312.183,29.9482 313.683,52.2816 314.5,74.5C 314.5,101.5 314.5,128.5 314.5,155.5C 313.167,169.5 313.167,183.5 314.5,197.5C 314.5,209.833 314.5,222.167 314.5,234.5C 312.708,261.993 311.208,289.659 310,317.5C 309.546,321.075 308.046,324.075 305.5,326.5C 287.5,326.5 269.5,326.5 251.5,326.5C 245.566,325.037 239.399,324.37 233,324.5C 224.635,324.591 216.469,325.258 208.5,326.5C 198.167,326.5 187.833,326.5 177.5,326.5C 160.341,325.169 143.007,324.169 125.5,323.5C 94.8543,325.197 64.1876,325.697 33.5,325C 23.7004,324.857 14.0338,323.857 4.5,322C 4,321.5 3.5,321 3,320.5C 2.83333,317.333 2.66667,314.167 2.5,311C 3.52883,292.508 3.69549,274.008 3,255.5C 2.71821,245.583 1.55155,235.917 -0.5,226.5C -0.5,214.167 -0.5,201.833 -0.5,189.5C 2.84106,171.531 2.84106,153.531 -0.5,135.5C -0.5,123.5 -0.5,111.5 -0.5,99.5C 1.07514,92.0373 2.24181,84.3707 3,76.5C 3.64804,57.3275 3.48137,38.1608 2.5,19C 2.66667,14.8333 2.83333,10.6667 3,6.5C 3.37424,5.58377 3.87424,4.75044 4.5,4C 23.9345,2.10603 43.4345,0.939358 63,0.5C 80.8202,1.52001 98.6535,2.18668 116.5,2.5C 152.651,0.46109 188.818,0.127757 225,1.5C 239.347,1.29393 253.513,0.627267 267.5,-0.5 Z M 289.5,6.5 C 294.809,5.56546 298.309,7.56546 300,12.5C 305.182,50.6926 306.682,89.026 304.5,127.5C 304.356,139.55 305.023,151.55 306.5,163.5C 304.407,182.617 304.074,201.784 305.5,221C 304.526,252.883 302.693,284.717 300,316.5C 298.147,318.592 295.814,319.592 293,319.5C 272.515,317.594 252.015,315.927 231.5,314.5C 217.353,315.588 203.186,316.254 189,316.5C 161.005,315.355 133.005,314.355 105,313.5C 87.9878,313.856 70.9878,314.523 54,315.5C 44.1152,315.47 34.2818,314.804 24.5,313.5C 20.7953,314.729 17.1286,314.563 13.5,313C 12.5415,311.293 11.8748,309.459 11.5,307.5C 12.136,299.527 12.4694,291.527 12.5,283.5C 11.8167,258.151 10.8167,232.817 9.5,207.5C 9.66667,200.5 9.83333,193.5 10,186.5C 11.5495,179.92 12.3829,173.253 12.5,166.5C 10.9244,148.866 9.92437,131.199 9.5,113.5C 10.629,89.1565 11.9623,64.8231 13.5,40.5C 13.0233,31.4928 12.8567,22.4928 13,13.5C 24.8875,11.8665 36.8875,10.8665 49,10.5C 66.641,11.832 84.3076,12.4987 102,12.5C 142.657,10.6412 183.324,10.3078 224,11.5C 238.835,11.0595 253.669,10.5595 268.5,10C 275.776,9.67633 282.776,8.50966 289.5,6.5 Z"/></g>
<g><path style="opacity:0.555" fill="#000000" d="M 84.5,42.5 C 91.3879,40.5633 94.7212,43.0633 94.5,50C 89.8838,69.285 78.2171,82.285 59.5,89C 53.2604,90.9694 48.5937,89.1361 45.5,83.5C 46.5466,80.5698 48.2132,78.0698 50.5,76C 65.0985,72.7374 74.5985,63.9041 79,49.5C 80.6665,47.0043 82.4998,44.671 84.5,42.5 Z"/></g>
<g><path style="opacity:0.558" fill="#000000" d="M 220.5,42.5 C 224.008,43.5041 227.174,45.1707 230,47.5C 232.351,61.5178 240.184,71.0178 253.5,76C 259.481,81.1472 259.814,86.4805 254.5,92C 241.479,91.9041 231.312,86.4041 224,75.5C 215.708,65.1083 214.542,54.1083 220.5,42.5 Z"/></g>
<g><path style="opacity:0.582" fill="#000000" d="M 83.5,89.5 C 99.466,88.396 111.299,94.7294 119,108.5C 120.548,112.525 121.381,116.692 121.5,121C 121.984,147.822 109.484,164.989 84,172.5C 74.0011,170.84 67.3344,165.173 64,155.5C 58.5632,133.713 62.5632,113.713 76,95.5C 78.1337,92.8474 80.6337,90.8474 83.5,89.5 Z"/></g>
<g><path style="opacity:0.581" fill="#000000" d="M 214.5,95.5 C 228.202,97.3669 237.702,104.7 243,117.5C 244.884,124.588 246.384,131.754 247.5,139C 245.067,156.431 235.234,166.598 218,169.5C 205.151,168.651 197.151,161.984 194,149.5C 190.337,132.459 191.671,115.792 198,99.5C 200.666,96.4445 203.833,95.7778 207.5,97.5C 210.08,97.2757 212.414,96.6091 214.5,95.5 Z"/></g>
<g><path style="opacity:0.6" fill="#f5f5f5" d="M 80.5,102.5 C 86.3578,103.095 91.0245,105.762 94.5,110.5C 90.6746,118.758 84.6746,121.424 76.5,118.5C 74.765,112.376 76.0984,107.043 80.5,102.5 Z"/></g>
<g><path style="opacity:0.6" fill="#e9e9e9" d="M 218.5,112.5 C 223.202,115.614 225.202,119.781 224.5,125C 220.834,126.271 218.334,125.104 217,121.5C 216.068,118.177 216.568,115.177 218.5,112.5 Z"/></g>
<g><path style="opacity:0.6" fill="#f0f0f0" d="M 73.5,133.5 C 78.58,133.62 80.9133,136.287 80.5,141.5C 74.1001,142.111 71.7668,139.444 73.5,133.5 Z"/></g>
<g><path style="opacity:0.531" fill="#000000" d="M 147.5,171.5 C 150.37,173.239 151.703,175.905 151.5,179.5C 151.012,184.878 150.345,190.211 149.5,195.5C 150.074,197.059 150.74,198.559 151.5,200C 153.577,200.192 155.577,200.692 157.5,201.5C 157.931,202.293 158.265,203.127 158.5,204C 152.029,210.447 146.196,209.947 141,202.5C 140.661,199.964 140.161,197.464 139.5,195C 140.612,188.497 141.778,181.997 143,175.5C 144.397,173.93 145.897,172.596 147.5,171.5 Z"/></g>
<g><path style="opacity:0.535" fill="#000000" d="M 169.5,236.5 C 178.259,236.472 185.425,239.806 191,246.5C 191.769,249.099 191.602,251.599 190.5,254C 182.757,253.307 175.59,250.807 169,246.5C 161.72,250.928 153.886,252.428 145.5,251C 142.054,249.104 141.72,246.77 144.5,244C 152.723,240.7 161.057,238.2 169.5,236.5 Z"/></g>
</svg>
