<svg xmlns="http://www.w3.org/2000/svg" width="192" height="199" fill="none" viewBox="0 0 192 199">
  <g clip-path="url(#a)" opacity=".6">
    <path fill="#000" d="M2.1 185.609c0-11.97.15-23.865-.076-35.835-.075-4.339-.9-8.604-1.499-12.943-1.424-11.072 0-22.069 1.35-33.067.45-3.441.074-6.957-.3-10.399-1.575-13.092-1.95-26.184-.3-39.35 1.35-10.849.9-21.846 1.124-32.768.075-4.713-.075-9.502-.375-14.215C1.8 3.591 3.45 2.17 6.598 2.02 14.694 1.646 22.79.973 30.888.973c15.969.15 31.863.972 47.831.897C93.34 1.795 107.883.748 122.502.45c5.548-.075 11.171 1.197 16.794 1.122C149.942 1.347 160.587.524 171.233.15c4.424-.15 8.847-.075 13.27.15 2.774.149 4.124 2.094 4.348 4.787.525 6.584 1.05 13.092 1.575 19.676.45 5.835 1.124 11.596 1.274 17.431.225 10.474.075 20.872.15 31.346 0 10.175.075 20.35.075 30.449 0 11.82.375 23.64-.075 35.386-.674 17.955-1.949 35.91-2.924 53.939-.15 3.068-1.649 5.088-4.723 5.312-4.198.299-8.321.374-12.52.374-4.423-.075-8.846-.449-13.27-.598-2.624-.15-5.248-.225-7.797-.225-6.597-.075-13.119-.224-19.717-.224-11.62-.075-23.166.224-34.786-.075-18.443-.449-36.886-1.796-55.329.374-6.972.823-14.17-.299-21.291-.599-3.824-.149-7.722-.448-11.546-.673-4.948-.224-5.848-1.122-5.773-6.06 0-1.87-.075-3.591-.075-5.311Zm184.202-86.408h-.374c0-10.698.075-21.322 0-32.02-.075-9.8-.225-19.6-.75-29.4-.45-9.053-1.574-18.105-2.174-27.083-.3-5.087-1.425-6.284-6.598-5.76-1.499.15-2.924.748-4.348.897-4.423.45-8.847.823-13.345 1.048-2.699.15-5.398 0-8.097.15-4.498.224-8.921.673-13.419.673-6.148-.075-12.221-.823-18.293-.748-15.219.374-30.438 1.496-45.582 1.496-15.07 0-30.139-1.048-45.283-1.347-5.922-.15-11.92.449-17.843.898-.674.075-1.799 1.346-1.874 2.095-.15 3.89.15 7.705.075 11.595-.15 10.699.225 21.397-.825 32.02-1.274 12.643-1.574 25.137.525 37.78.975 5.76-.075 11.82-.375 17.731-.375 7.406-1.424 14.812-1.35 22.294.15 7.78 1.65 15.56 1.875 23.341.375 10.174.075 20.349.075 30.523 0 5.237-.075 5.162 5.323 5.087 1.125 0 2.249.3 3.374.3 8.471.299 16.943.748 25.415.673 12.445-.15 24.965-1.047 37.41-.973 16.194.075 32.387.823 48.581 1.272 8.172.225 16.419.973 24.59.449 8.697-.524 17.094.15 25.565 1.721 3.149.598 4.799-1.347 4.574-4.713-.15-1.571 0-3.217.15-4.863.899-15.112 2.174-30.224 2.699-45.336.299-9.277-.525-18.628-.6-27.98-.225-3.89.45-7.855.899-11.82Z"/>
    <path fill="#000" d="M86.004 150.622c-.717-11.294 8-22.231 19.463-25.678 6.089-1.903 13.134 4.279 14.09 12.007 1.313 11.293-6.329 24.252-16.837 28.769-6.686 2.853-15.522-2.259-16.597-9.748-.358-1.783-.12-3.567-.12-5.35Zm24-8.322 1.791-1.426c-1.671-2.497-3.104-6.658-5.254-7.014-4.179-.714-8.358 1.189-9.91 7.37 4.657.357 8.955.714 13.373 1.07Zm34.615-73.024c.225 5.91-1.05 8.08-5.098 9.725-3.674 1.497-7.647.599-10.421-2.693-3.599-4.264-5.173-9.127-3.374-14.588 1.649-4.938 6.747-6.284 10.721-2.993.3.225.525.749.75.749 8.246-.374 6.372 6.209 7.422 9.8Zm-67.324-2.394c-.15 4.638-2.174 8.977-6.898 11.67-5.922 3.442-12.895-.673-12.745-7.555.075-2.47.3-4.938.975-7.332.675-2.469 1.95-4.638 5.248-4.264.6.074 1.5-.15 1.874-.599 2.25-2.469 5.248-2.618 7.422-1.047 1.95 1.421 2.85 4.264 4.049 6.508.3.524.075 1.272.075 2.619Zm-35.154-.669c-.226-7.792.982-15.078 4.985-21.15 1.058-1.517 2.417-2.934 3.852-3.642.68-.405 2.191.708 2.795 1.72.378.607 0 2.732-.529 3.34-5.664 6.273-6.193 14.672-5.664 23.476.15 3.036.755 6.375-2.115 6.78-3.173.405-3.022-3.542-3.324-6.477-.15-1.315 0-2.732 0-4.047Zm110.2.062c.588-7.382-1.566-13.599-7.245-18.65-.783-.68-.392-2.72-.49-4.08 1.763-.096 4.602-.873 5.19-.096 3.329 4.468 6.952 9.033 8.714 14.181 1.469 4.371.783 9.616.392 14.376-.196 1.651-2.35 3.205-3.623 4.76-1.077-1.652-2.448-3.303-3.035-5.148-.49-1.652 0-3.594.097-5.343Zm-53.605 39.06c.6 3.217 1.5 7.407 2.099 11.596.15.823-.674 2.394-1.424 2.693-2.324 1.048-4.723-.897-5.023-3.965-.375-3.74-.6-7.406-.825-11.147-.15-2.169-.075-4.713 2.924-4.638 2.774.15 3.149 2.244 2.25 5.461Z"/>
    <path fill="#fff" d="M110.059 142.312c-4.367-.363-8.735-.727-13.466-1.211 1.456-6.292 5.702-8.229 10.069-7.503 2.063.364 3.518 4.599 5.338 7.14-.728.605-1.334 1.089-1.941 1.574Z"/>
  </g>
  <defs>
    <clipPath id="a">
      <path fill="#fff" d="M0 0h192v199H0z"/>
    </clipPath>
  </defs>
</svg>
