<?xml version="1.0" encoding="UTF-8"?>
<!DOCTYPE svg PUBLIC "-//W3C//DTD SVG 1.1//EN" "http://www.w3.org/Graphics/SVG/1.1/DTD/svg11.dtd">
<svg xmlns="http://www.w3.org/2000/svg" version="1.1" width="70px" height="70px" style="shape-rendering:geometricPrecision; text-rendering:geometricPrecision; image-rendering:optimizeQuality; fill-rule:evenodd; clip-rule:evenodd" xmlns:xlink="http://www.w3.org/1999/xlink">
<g><path style="opacity:0.14" fill="#4e4e4e" d="M 21.5,-0.5 C 30.1667,-0.5 38.8333,-0.5 47.5,-0.5C 52.065,1.4539 56.3983,3.9539 60.5,7C 64.4151,11.3435 67.4151,16.1768 69.5,21.5C 69.5,30.1667 69.5,38.8333 69.5,47.5C 65.8333,58.5 58.5,65.8333 47.5,69.5C 38.8333,69.5 30.1667,69.5 21.5,69.5C 10.5,65.8333 3.16667,58.5 -0.5,47.5C -0.5,38.8333 -0.5,30.1667 -0.5,21.5C 3.16667,10.5 10.5,3.16667 21.5,-0.5 Z"/></g>
<g><path style="opacity:0.89" fill="#bea421" d="M 46.5,10.5 C 47.782,11.7082 47.782,13.0416 46.5,14.5C 45.7084,13.3002 45.7084,11.9669 46.5,10.5 Z"/></g>
<g><path style="opacity:0.733" fill="#b9a024" d="M 51.5,13.5 C 52.3764,13.3691 53.0431,13.7025 53.5,14.5C 52.2954,16.1376 50.9621,16.4709 49.5,15.5C 50.2427,14.8182 50.9094,14.1515 51.5,13.5 Z"/></g>
<g><path style="opacity:0.987" fill="#5b7779" d="M 48.5,24.5 C 42.465,24.5368 36.465,25.0368 30.5,26C 25.1667,31.6667 25.1667,37.3333 30.5,43C 36.4908,43.4995 42.4908,43.6662 48.5,43.5C 49.07,47.4214 47.4033,49.588 43.5,50C 33.7982,51.5951 24.1315,51.5951 14.5,50C 13.8742,49.2496 13.3742,48.4162 13,47.5C 12.3333,39.1667 12.3333,30.8333 13,22.5C 13.4652,21.0692 14.2986,19.9025 15.5,19C 25.4639,17.5774 35.4639,17.2441 45.5,18C 47.9193,19.5088 48.9193,21.6755 48.5,24.5 Z"/></g>
<g><path style="opacity:0.867" fill="#ceb117" d="M 52.5,18.5 C 53.3764,18.3691 54.0431,18.7025 54.5,19.5C 52.1916,20.8734 51.5249,20.5401 52.5,18.5 Z"/></g>
<g><path style="opacity:1" fill="#3c494a" d="M 48.5,24.5 C 48.246,25.3321 47.246,25.9987 45.5,26.5C 41.6856,29.1521 40.5189,32.8187 42,37.5C 44.6862,41.977 48.1862,42.6436 52.5,39.5C 55.1551,35.8008 55.1551,32.1342 52.5,28.5C 53.7498,28.5774 54.5831,29.244 55,30.5C 57.3136,37.3479 55.1469,41.6812 48.5,43.5C 42.4908,43.6662 36.4908,43.4995 30.5,43C 25.1667,37.3333 25.1667,31.6667 30.5,26C 36.465,25.0368 42.465,24.5368 48.5,24.5 Z"/></g>
<g><path style="opacity:1" fill="#a0b7ba" d="M 45.5,26.5 C 48.2282,26.1706 50.5615,26.8372 52.5,28.5C 55.1551,32.1342 55.1551,35.8008 52.5,39.5C 48.1862,42.6436 44.6862,41.977 42,37.5C 40.5189,32.8187 41.6856,29.1521 45.5,26.5 Z"/></g>
</svg>
