<?xml version="1.0" encoding="UTF-8"?>
<!DOCTYPE svg PUBLIC "-//W3C//DTD SVG 1.1//EN" "http://www.w3.org/Graphics/SVG/1.1/DTD/svg11.dtd">
<svg xmlns="http://www.w3.org/2000/svg" version="1.1" width="59px" height="43px" style="shape-rendering:geometricPrecision; text-rendering:geometricPrecision; image-rendering:optimizeQuality; fill-rule:evenodd; clip-rule:evenodd" xmlns:xlink="http://www.w3.org/1999/xlink">
<g><path style="opacity:0.776" fill="#fad20c" d="M 41.5,0.5 C 42.782,1.70823 42.782,3.04156 41.5,4.5C 40.7084,3.30024 40.7084,1.9669 41.5,0.5 Z"/></g>
<g><path style="opacity:0.644" fill="#f8d114" d="M 46.5,3.5 C 47.3764,3.36912 48.0431,3.70245 48.5,4.5C 47.2954,6.13758 45.9621,6.47091 44.5,5.5C 45.2427,4.81815 45.9094,4.15149 46.5,3.5 Z"/></g>
<g><path style="opacity:1" fill="#425557" d="M 18.5,6.5 C 17.0821,8.30794 15.0821,8.97461 12.5,8.5C 12.5,7.5 12.5,6.5 12.5,5.5C 14.0603,5.48091 15.5603,5.14758 17,4.5C 18.0299,4.83611 18.5299,5.50278 18.5,6.5 Z"/></g>
<g><path style="opacity:0.986" fill="#5d7d80" d="M 18.5,6.5 C 26.0881,7.30062 33.7548,7.80062 41.5,8C 43.229,9.7889 43.8957,11.9556 43.5,14.5C 39.9581,14.1872 36.6248,14.5206 33.5,15.5C 31.8333,15.5 30.1667,15.5 28.5,15.5C 24.0621,16.6491 21.7287,19.6491 21.5,24.5C 21.7287,29.3509 24.0621,32.3509 28.5,33.5C 30.8333,33.5 33.1667,33.5 35.5,33.5C 38.1667,33.5 40.8333,33.5 43.5,33.5C 44.3629,37.1616 43.0296,39.3282 39.5,40C 33,40.5 26.5,41 20,41.5C 15.5832,41.8643 11.5832,40.8643 8,38.5C 7.33333,29.8333 7.33333,21.1667 8,12.5C 8.11183,9.55291 9.61183,8.21958 12.5,8.5C 15.0821,8.97461 17.0821,8.30794 18.5,6.5 Z"/></g>
<g><path style="opacity:0.714" fill="#f6cf18" d="M 46.5,8.5 C 48.1033,8.31181 49.4366,8.81181 50.5,10C 48.5372,10.8442 47.2039,10.3442 46.5,8.5 Z"/></g>
<g><path style="opacity:1" fill="#324142" d="M 28.5,15.5 C 30.1667,15.5 31.8333,15.5 33.5,15.5C 33.9382,15.4346 34.2716,15.6012 34.5,16C 33.6667,16.8333 32.8333,17.6667 32,18.5C 30.5593,24.2277 31.7259,29.2277 35.5,33.5C 33.1667,33.5 30.8333,33.5 28.5,33.5C 24.5873,27.4696 24.5873,21.4696 28.5,15.5 Z"/></g>
<g><path style="opacity:1" fill="#3b4c4d" d="M 33.5,15.5 C 36.6248,14.5206 39.9581,14.1872 43.5,14.5C 48.7475,15.6292 51.0809,18.9625 50.5,24.5C 51.247,30.0387 48.9136,33.0387 43.5,33.5C 40.8333,33.5 38.1667,33.5 35.5,33.5C 31.7259,29.2277 30.5593,24.2277 32,18.5C 32.8333,17.6667 33.6667,16.8333 34.5,16C 34.2716,15.6012 33.9382,15.4346 33.5,15.5 Z"/></g>
<g><path style="opacity:1" fill="#3e4e50" d="M 28.5,15.5 C 24.5873,21.4696 24.5873,27.4696 28.5,33.5C 24.0621,32.3509 21.7287,29.3509 21.5,24.5C 21.7287,19.6491 24.0621,16.6491 28.5,15.5 Z"/></g>
<g><path style="opacity:1" fill="#a9c5c8" d="M 42.5,16.5 C 45.7959,18.3927 47.6293,21.3927 48,25.5C 48.49,24.2068 48.6567,22.8734 48.5,21.5C 50.2049,28.8655 47.2049,32.0321 39.5,31C 36.6819,27.6621 35.8485,23.8288 37,19.5C 38.2635,17.393 40.0968,16.393 42.5,16.5 Z"/></g>
<g><path style="opacity:1" fill="#d9e5e7" d="M 42.5,16.5 C 45.7124,16.7124 47.7124,18.3791 48.5,21.5C 48.6567,22.8734 48.49,24.2068 48,25.5C 47.6293,21.3927 45.7959,18.3927 42.5,16.5 Z"/></g>
</svg>
