<?xml version="1.0" encoding="UTF-8"?>
<!DOCTYPE svg PUBLIC "-//W3C//DTD SVG 1.1//EN" "http://www.w3.org/Graphics/SVG/1.1/DTD/svg11.dtd">
<svg xmlns="http://www.w3.org/2000/svg" version="1.1" width="89px" height="68px" style="shape-rendering:geometricPrecision; text-rendering:geometricPrecision; image-rendering:optimizeQuality; fill-rule:evenodd; clip-rule:evenodd" xmlns:xlink="http://www.w3.org/1999/xlink">
<g><path style="opacity:0.571" fill="#fcd500" d="M 63.5,1.5 C 65.9755,3.1209 66.1422,5.1209 64,7.5C 63.3076,6.97473 62.8076,6.30806 62.5,5.5C 63.2458,4.26381 63.5792,2.93047 63.5,1.5 Z"/></g>
<g><path style="opacity:0.575" fill="#fcd400" d="M 72.5,5.5 C 73.4972,5.47008 74.1639,5.97008 74.5,7C 73.3867,8.39433 72.0534,9.561 70.5,10.5C 69.4173,9.63505 69.2506,8.63505 70,7.5C 70.9947,6.93406 71.828,6.26739 72.5,5.5 Z"/></g>
<g><path style="opacity:0.889" fill="#3d4f50" d="M 28.5,12.5 C 25.272,13.4137 21.9387,13.7471 18.5,13.5C 17.8238,9.50952 19.4905,7.84286 23.5,8.5C 26.5327,8.30748 28.1993,9.64081 28.5,12.5 Z"/></g>
<g><path style="opacity:0.975" fill="#5f7f82" d="M 67.5,22.5 C 66.8333,22.8333 66.1667,23.1667 65.5,23.5C 63.8333,23.5 62.1667,23.5 60.5,23.5C 56.9581,23.1872 53.6248,23.5206 50.5,24.5C 47.9407,24.1984 45.6074,24.5318 43.5,25.5C 35.7726,26.4143 32.106,30.9143 32.5,39C 32.8727,44.0791 34.8727,48.4124 38.5,52C 40.1341,52.4935 41.8008,52.6602 43.5,52.5C 46.2869,53.4767 49.2869,53.81 52.5,53.5C 53.1667,53.5 53.8333,53.5 54.5,53.5C 56.8333,53.5 59.1667,53.5 61.5,53.5C 62.8333,53.5 64.1667,53.5 65.5,53.5C 66.1667,53.5 66.8333,53.5 67.5,53.5C 68.0567,57.8884 66.3901,61.0551 62.5,63C 51.6822,64.0373 40.8489,64.8706 30,65.5C 23.9233,65.7374 18.0899,64.7374 12.5,62.5C 11.1936,61.0878 10.3603,59.4211 10,57.5C 9.6669,44.8246 10.0002,32.1579 11,19.5C 11.8635,15.4819 14.3635,13.4819 18.5,13.5C 21.9387,13.7471 25.272,13.4137 28.5,12.5C 39.8158,11.2836 51.1491,11.4503 62.5,13C 65.7083,15.2559 67.375,18.4226 67.5,22.5 Z"/></g>
<g><path style="opacity:0.696" fill="#fdd500" d="M 72.5,14.5 C 77.9604,14.4606 78.4604,15.4606 74,17.5C 71.7197,17.1058 71.2197,16.1058 72.5,14.5 Z"/></g>
<g><path style="opacity:0.84" fill="#405152" d="M 67.5,22.5 C 74.9017,25.613 78.5683,31.2796 78.5,39.5C 78.5282,47.1323 74.8615,51.7989 67.5,53.5C 66.8333,53.5 66.1667,53.5 65.5,53.5C 64.4107,51.8829 62.744,51.0496 60.5,51C 58.8588,49.871 57.8588,48.371 57.5,46.5C 61.5363,50.6255 66.203,51.4588 71.5,49C 75.2841,44.139 76.4507,38.639 75,32.5C 74.7216,31.5842 74.2216,30.9175 73.5,30.5C 73.5,28.5 72.5,27.5 70.5,27.5C 69.2196,26.0687 67.5529,25.4021 65.5,25.5C 65.5,24.8333 65.5,24.1667 65.5,23.5C 66.1667,23.1667 66.8333,22.8333 67.5,22.5 Z"/></g>
<g><path style="opacity:1" fill="#3a4a4b" d="M 43.5,25.5 C 45.6074,24.5318 47.9407,24.1984 50.5,24.5C 43.5394,34.5869 44.2061,44.2536 52.5,53.5C 49.2869,53.81 46.2869,53.4767 43.5,52.5C 44.2389,52.631 44.9056,52.4643 45.5,52C 41.972,48.0797 40.3053,43.413 40.5,38C 40.4183,33.2387 42.0849,29.2387 45.5,26C 44.9056,25.5357 44.2389,25.369 43.5,25.5 Z"/></g>
<g><path style="opacity:1" fill="#3a4a4b" d="M 50.5,24.5 C 53.6248,23.5206 56.9581,23.1872 60.5,23.5C 52.0853,29.8107 50.2519,37.8107 55,47.5C 56.4936,50.3135 58.6603,52.3135 61.5,53.5C 59.1667,53.5 56.8333,53.5 54.5,53.5C 48.1998,47.0889 46.0331,39.4222 48,30.5C 49.1411,28.3911 50.6411,26.5578 52.5,25C 51.9056,24.5357 51.2389,24.369 50.5,24.5 Z"/></g>
<g><path style="opacity:1" fill="#3b4b4c" d="M 43.5,25.5 C 40.1322,29.3341 38.7989,33.8341 39.5,39C 38.7943,44.2045 40.1276,48.7045 43.5,52.5C 41.8008,52.6602 40.1341,52.4935 38.5,52C 34.8727,48.4124 32.8727,44.0791 32.5,39C 32.106,30.9143 35.7726,26.4143 43.5,25.5 Z"/></g>
<g><path style="opacity:1" fill="#aac7ca" d="M 65.5,25.5 C 67.5529,25.4021 69.2196,26.0687 70.5,27.5C 68.8008,27.3398 67.1341,27.5065 65.5,28C 70.0718,29.071 72.7385,31.9044 73.5,36.5C 73.9202,34.674 73.9202,32.674 73.5,30.5C 74.2216,30.9175 74.7216,31.5842 75,32.5C 76.4507,38.639 75.2841,44.139 71.5,49C 66.203,51.4588 61.5363,50.6255 57.5,46.5C 54.5967,40.3033 54.9301,34.3033 58.5,28.5C 60.4605,26.6878 62.7939,25.6878 65.5,25.5 Z"/></g>
<g><path style="opacity:1" fill="#44595b" d="M 21.5,16.5 C 22.8308,23.6356 23.4975,31.1356 23.5,39C 23.1667,46.5 22.8333,54 22.5,61.5C 21.5007,46.5148 21.1673,31.5148 21.5,16.5 Z"/></g>
<g><path style="opacity:1" fill="#e4eced" d="M 70.5,27.5 C 72.5,27.5 73.5,28.5 73.5,30.5C 73.9202,32.674 73.9202,34.674 73.5,36.5C 72.7385,31.9044 70.0718,29.071 65.5,28C 67.1341,27.5065 68.8008,27.3398 70.5,27.5 Z"/></g>
<g><path style="opacity:1" fill="#263333" d="M 50.5,24.5 C 51.2389,24.369 51.9056,24.5357 52.5,25C 50.6411,26.5578 49.1411,28.3911 48,30.5C 46.0331,39.4222 48.1998,47.0889 54.5,53.5C 53.8333,53.5 53.1667,53.5 52.5,53.5C 44.2061,44.2536 43.5394,34.5869 50.5,24.5 Z"/></g>
<g><path style="opacity:1" fill="#3b4b4c" d="M 58.5,28.5 C 54.9301,34.3033 54.5967,40.3033 57.5,46.5C 56.2502,46.4226 55.4169,45.756 55,44.5C 52.8782,39.3476 53.2115,34.3476 56,29.5C 56.6708,28.7476 57.5041,28.4142 58.5,28.5 Z"/></g>
<g><path style="opacity:1" fill="#263333" d="M 60.5,23.5 C 62.1667,23.5 63.8333,23.5 65.5,23.5C 65.5,24.1667 65.5,24.8333 65.5,25.5C 62.7939,25.6878 60.4605,26.6878 58.5,28.5C 57.5041,28.4142 56.6708,28.7476 56,29.5C 53.2115,34.3476 52.8782,39.3476 55,44.5C 55.4169,45.756 56.2502,46.4226 57.5,46.5C 57.8588,48.371 58.8588,49.871 60.5,51C 62.744,51.0496 64.4107,51.8829 65.5,53.5C 64.1667,53.5 62.8333,53.5 61.5,53.5C 58.6603,52.3135 56.4936,50.3135 55,47.5C 50.2519,37.8107 52.0853,29.8107 60.5,23.5 Z"/></g>
<g><path style="opacity:1" fill="#253232" d="M 43.5,25.5 C 44.2389,25.369 44.9056,25.5357 45.5,26C 42.0849,29.2387 40.4183,33.2387 40.5,38C 40.3053,43.413 41.972,48.0797 45.5,52C 44.9056,52.4643 44.2389,52.631 43.5,52.5C 40.1276,48.7045 38.7943,44.2045 39.5,39C 38.7989,33.8341 40.1322,29.3341 43.5,25.5 Z"/></g>
</svg>
