<?xml version="1.0" encoding="UTF-8"?>
<!DOCTYPE svg PUBLIC "-//W3C//DTD SVG 1.1//EN" "http://www.w3.org/Graphics/SVG/1.1/DTD/svg11.dtd">
<svg xmlns="http://www.w3.org/2000/svg" version="1.1" width="70px" height="70px" style="shape-rendering:geometricPrecision; text-rendering:geometricPrecision; image-rendering:optimizeQuality; fill-rule:evenodd; clip-rule:evenodd" xmlns:xlink="http://www.w3.org/1999/xlink">
<g><path style="opacity:0.138" fill="#4e4e4e" d="M 21.5,-0.5 C 30.1667,-0.5 38.8333,-0.5 47.5,-0.5C 52.065,1.4539 56.3983,3.9539 60.5,7C 64.4151,11.3435 67.4151,16.1768 69.5,21.5C 69.5,30.1667 69.5,38.8333 69.5,47.5C 65.8333,58.5 58.5,65.8333 47.5,69.5C 38.8333,69.5 30.1667,69.5 21.5,69.5C 10.5,65.8333 3.16667,58.5 -0.5,47.5C -0.5,38.8333 -0.5,30.1667 -0.5,21.5C 3.16667,10.5 10.5,3.16667 21.5,-0.5 Z"/></g>
<g><path style="opacity:0.784" fill="#c3a924" d="M 46.5,10.5 C 47.5983,11.6009 47.765,12.9343 47,14.5C 45.4894,13.436 45.3228,12.1026 46.5,10.5 Z"/></g>
<g><path style="opacity:0.733" fill="#ceb219" d="M 51.5,13.5 C 53.6569,14.0533 53.4903,15.0533 51,16.5C 50.5304,15.4232 50.6971,14.4232 51.5,13.5 Z"/></g>
<g><path style="opacity:0.985" fill="#5b7779" d="M 48.5,24.5 C 42.465,24.5368 36.465,25.0368 30.5,26C 25.1667,31.6667 25.1667,37.3333 30.5,43C 36.4908,43.4995 42.4908,43.6662 48.5,43.5C 48.822,45.7224 48.1554,47.5557 46.5,49C 37.2501,50.8713 27.9168,51.5379 18.5,51C 16.0694,50.7051 14.236,49.5384 13,47.5C 12.3333,39.1667 12.3333,30.8333 13,22.5C 13.4652,21.0692 14.2986,19.9025 15.5,19C 25.4639,17.5774 35.4639,17.2441 45.5,18C 47.9193,19.5088 48.9193,21.6755 48.5,24.5 Z"/></g>
<g><path style="opacity:0.784" fill="#ccb01d" d="M 52.5,18.5 C 53.3764,18.3691 54.0431,18.7025 54.5,19.5C 52.1916,20.8734 51.5249,20.5401 52.5,18.5 Z"/></g>
<g><path style="opacity:1" fill="#3c4a4b" d="M 48.5,24.5 C 53.8114,25.8503 56.1447,29.3503 55.5,35C 55.5671,39.7694 53.2338,42.6028 48.5,43.5C 42.4908,43.6662 36.4908,43.4995 30.5,43C 25.1667,37.3333 25.1667,31.6667 30.5,26C 36.465,25.0368 42.465,24.5368 48.5,24.5 Z"/></g>
<g><path style="opacity:1" fill="#a0b7ba" d="M 44.5,26.5 C 51.6057,26.1055 54.7723,29.4388 54,36.5C 52.3357,41.0383 49.1691,42.5383 44.5,41C 40.5265,36.0978 40.5265,31.2644 44.5,26.5 Z"/></g>
</svg>
