<?xml version="1.0" encoding="UTF-8"?>
<!DOCTYPE svg PUBLIC "-//W3C//DTD SVG 1.1//EN" "http://www.w3.org/Graphics/SVG/1.1/DTD/svg11.dtd">
<svg xmlns="http://www.w3.org/2000/svg" version="1.1" width="59px" height="61px" style="shape-rendering:geometricPrecision; text-rendering:geometricPrecision; image-rendering:optimizeQuality; fill-rule:evenodd; clip-rule:evenodd" xmlns:xlink="http://www.w3.org/1999/xlink">
<g><path style="opacity:0.986" fill="#fd5c5a" d="M 22.5,15.5 C 24.8432,18.2072 27.1765,20.8739 29.5,23.5C 31.5,26.1667 33.8333,28.5 36.5,30.5C 39.1954,33.5256 41.8621,36.5256 44.5,39.5C 44.8333,40.5 45.5,41.1667 46.5,41.5C 51.1546,45.3105 53.1546,50.1438 52.5,56C 45.9063,56.7032 40.9063,54.2032 37.5,48.5C 35.1377,45.808 32.8044,43.1413 30.5,40.5C 27.4715,37.141 24.4715,33.8076 21.5,30.5C 17.8451,25.5137 13.8451,20.847 9.5,16.5C 6.19252,12.4035 5.02585,7.73685 6,2.5C 12.8135,5.14469 18.3135,9.47802 22.5,15.5 Z"/></g>
<g><path style="opacity:0.529" fill="#fcbd31" d="M 41.5,8.5 C 42.782,9.70823 42.782,11.0416 41.5,12.5C 40.7084,11.3002 40.7084,9.9669 41.5,8.5 Z"/></g>
<g><path style="opacity:0.749" fill="#fcb836" d="M 46.5,11.5 C 47.3764,11.3691 48.0431,11.7025 48.5,12.5C 47.2954,14.1376 45.9621,14.4709 44.5,13.5C 45.2427,12.8182 45.9094,12.1515 46.5,11.5 Z"/></g>
<g><path style="opacity:0.966" fill="#638083" d="M 22.5,15.5 C 28.5092,15.3338 34.5092,15.5005 40.5,16C 43.1446,17.2865 44.1446,19.4532 43.5,22.5C 38.7858,22.3531 34.1191,22.6864 29.5,23.5C 27.1765,20.8739 24.8432,18.2072 22.5,15.5 Z"/></g>
<g><path style="opacity:0.843" fill="#fab538" d="M 46.5,16.5 C 48.1033,16.3118 49.4366,16.8118 50.5,18C 48.5372,18.8442 47.2039,18.3442 46.5,16.5 Z"/></g>
<g><path style="opacity:0.968" fill="#5f7d80" d="M 9.5,16.5 C 13.8451,20.847 17.8451,25.5137 21.5,30.5C 21.259,33.7935 22.0924,36.7935 24,39.5C 26.0164,41.6082 28.1831,41.9416 30.5,40.5C 32.8044,43.1413 35.1377,45.808 37.5,48.5C 29.5013,49.1029 21.5013,49.2696 13.5,49C 11.324,48.8371 9.4907,48.0037 8,46.5C 7.33333,37.8333 7.33333,29.1667 8,20.5C 8.4101,19.0993 8.9101,17.766 9.5,16.5 Z"/></g>
<g><path style="opacity:1" fill="#435050" d="M 43.5,22.5 C 46.6421,22.7993 48.8088,24.4659 50,27.5C 50.6667,30.8333 50.6667,34.1667 50,37.5C 49.3103,39.3502 48.1436,40.6836 46.5,41.5C 45.5,41.1667 44.8333,40.5 44.5,39.5C 50.6411,35.2343 50.9744,30.401 45.5,25C 40.293,23.3908 37.293,25.2241 36.5,30.5C 33.8333,28.5 31.5,26.1667 29.5,23.5C 34.1191,22.6864 38.7858,22.3531 43.5,22.5 Z"/></g>
<g><path style="opacity:1" fill="#aec8cb" d="M 44.5,39.5 C 41.8621,36.5256 39.1954,33.5256 36.5,30.5C 37.293,25.2241 40.293,23.3908 45.5,25C 50.9744,30.401 50.6411,35.2343 44.5,39.5 Z"/></g>
<g><path style="opacity:1" fill="#414c4d" d="M 21.5,30.5 C 24.4715,33.8076 27.4715,37.141 30.5,40.5C 28.1831,41.9416 26.0164,41.6082 24,39.5C 22.0924,36.7935 21.259,33.7935 21.5,30.5 Z"/></g>
</svg>
