<?xml version="1.0" encoding="UTF-8"?>
<!DOCTYPE svg PUBLIC "-//W3C//DTD SVG 1.1//EN" "http://www.w3.org/Graphics/SVG/1.1/DTD/svg11.dtd">
<svg xmlns="http://www.w3.org/2000/svg" version="1.1" width="70px" height="70px" style="shape-rendering:geometricPrecision; text-rendering:geometricPrecision; image-rendering:optimizeQuality; fill-rule:evenodd; clip-rule:evenodd" xmlns:xlink="http://www.w3.org/1999/xlink">
<g><path style="opacity:0.14" fill="#4e4e4e" d="M 21.5,-0.5 C 30.1667,-0.5 38.8333,-0.5 47.5,-0.5C 52.065,1.4539 56.3983,3.9539 60.5,7C 64.4151,11.3435 67.4151,16.1768 69.5,21.5C 69.5,30.1667 69.5,38.8333 69.5,47.5C 65.8333,58.5 58.5,65.8333 47.5,69.5C 38.8333,69.5 30.1667,69.5 21.5,69.5C 10.5,65.8333 3.16667,58.5 -0.5,47.5C -0.5,38.8333 -0.5,30.1667 -0.5,21.5C 3.16667,10.5 10.5,3.16667 21.5,-0.5 Z"/></g>
<g><path style="opacity:0.997" fill="#e35a59" d="M 27.5,21.5 C 29.8432,24.2072 32.1765,26.8739 34.5,29.5C 36.5,32.1667 38.8333,34.5 41.5,36.5C 44.1954,39.5256 46.8621,42.5256 49.5,45.5C 51.1271,47.6298 52.9604,49.6298 55,51.5C 57.0364,54.6019 58.0364,57.9352 58,61.5C 51.3513,62.7325 46.1846,60.3991 42.5,54.5C 40.5,52.1667 38.5,49.8333 36.5,47.5C 33.1383,43.8075 29.8049,40.1408 26.5,36.5C 23.1793,31.8482 19.5126,27.5149 15.5,23.5C 12.0085,19.5612 10.3418,14.8945 10.5,9.5C 13.6907,10.0922 16.6907,11.2589 19.5,13C 21.6671,16.3329 24.3338,19.1663 27.5,21.5 Z"/></g>
<g><path style="opacity:0.216" fill="#af8144" d="M 46.5,15.5 C 47.7759,16.3864 47.7759,17.3864 46.5,18.5C 45.4376,17.5754 45.4376,16.5754 46.5,15.5 Z"/></g>
<g><path style="opacity:0.812" fill="#d19d37" d="M 51.5,17.5 C 53.9752,17.7467 53.9752,18.4134 51.5,19.5C 50.537,19.0302 50.537,18.3635 51.5,17.5 Z"/></g>
<g><path style="opacity:0.982" fill="#607a7c" d="M 27.5,21.5 C 33.5092,21.3338 39.5092,21.5005 45.5,22C 47.9193,23.5088 48.9193,25.6755 48.5,28.5C 43.7697,28.2834 39.1031,28.6167 34.5,29.5C 32.1765,26.8739 29.8432,24.2072 27.5,21.5 Z"/></g>
<g><path style="opacity:0.251" fill="#ad7b48" d="M 51.5,22.5 C 52.675,22.281 53.675,22.6143 54.5,23.5C 52.9483,24.7979 51.9483,24.4646 51.5,22.5 Z"/></g>
<g><path style="opacity:0.989" fill="#5d7779" d="M 15.5,23.5 C 19.5126,27.5149 23.1793,31.8482 26.5,36.5C 26.006,43.9267 29.3394,47.5934 36.5,47.5C 38.5,49.8333 40.5,52.1667 42.5,54.5C 36.4789,54.4247 30.4789,54.758 24.5,55.5C 20.4892,55.5817 16.8226,54.5817 13.5,52.5C 12.3626,43.8818 12.1959,35.2151 13,26.5C 13.3768,25.0577 14.2101,24.0577 15.5,23.5 Z"/></g>
<g><path style="opacity:1" fill="#a0b6b9" d="M 49.5,45.5 C 46.8621,42.5256 44.1954,39.5256 41.5,36.5C 42.293,31.2241 45.293,29.3908 50.5,31C 51.8782,32.7134 53.5448,34.0467 55.5,35C 55.1524,39.5379 53.1524,43.0379 49.5,45.5 Z"/></g>
<g><path style="opacity:1" fill="#454e4e" d="M 26.5,36.5 C 29.8049,40.1408 33.1383,43.8075 36.5,47.5C 29.3394,47.5934 26.006,43.9267 26.5,36.5 Z"/></g>
</svg>
