<?xml version="1.0" encoding="UTF-8"?>
<!DOCTYPE svg PUBLIC "-//W3C//DTD SVG 1.1//EN" "http://www.w3.org/Graphics/SVG/1.1/DTD/svg11.dtd">
<svg xmlns="http://www.w3.org/2000/svg" version="1.1" width="90px" height="123px" style="shape-rendering:geometricPrecision; text-rendering:geometricPrecision; image-rendering:optimizeQuality; fill-rule:evenodd; clip-rule:evenodd" xmlns:xlink="http://www.w3.org/1999/xlink">
<g><path style="opacity:0.976" fill="#fd5a5a" d="M 33.5,24.5 C 36.7912,29.1267 40.4579,33.46 44.5,37.5C 48.1949,41.5259 51.8616,45.5259 55.5,49.5C 59.1549,54.4863 63.1549,59.153 67.5,63.5C 67.9731,64.9063 68.9731,65.573 70.5,65.5C 74.0888,69.6719 76.9221,74.3386 79,79.5C 82.7486,87.2456 80.5819,90.4122 72.5,89C 70.3921,88.6401 68.3921,87.9734 66.5,87C 62.9643,83.2961 59.2976,79.7961 55.5,76.5C 53.2065,72.8726 50.5398,69.5393 47.5,66.5C 42.248,60.3094 37.248,53.9761 32.5,47.5C 30.2133,43.8781 27.5466,40.5448 24.5,37.5C 23.8333,36.1667 22.8333,35.1667 21.5,34.5C 19.883,31.2157 17.5497,28.5491 14.5,26.5C 9.97872,20.191 8.31206,13.191 9.5,5.5C 13.6613,7.05049 17.6613,8.88382 21.5,11C 25.3367,15.6686 29.3367,20.1686 33.5,24.5 Z"/></g>
<g><path style="opacity:0.859" fill="#fdd700" d="M 63.5,14.5 C 65.256,15.5521 65.9227,17.2188 65.5,19.5C 64.325,19.719 63.325,19.3857 62.5,18.5C 63.2458,17.2638 63.5792,15.9305 63.5,14.5 Z"/></g>
<g><path style="opacity:0.686" fill="#fcd400" d="M 72.5,18.5 C 73.3764,18.3691 74.0431,18.7025 74.5,19.5C 73.485,22.1677 71.8183,22.8344 69.5,21.5C 70.3398,20.265 71.3398,19.265 72.5,18.5 Z"/></g>
<g><path style="opacity:0.969" fill="#618083" d="M 33.5,24.5 C 43.2076,24.2559 52.8743,24.7559 62.5,26C 63.9308,26.4652 65.0975,27.2986 66,28.5C 66.4396,30.8659 66.9396,33.1992 67.5,35.5C 60.0054,36.4512 52.3387,37.1178 44.5,37.5C 40.4579,33.46 36.7912,29.1267 33.5,24.5 Z"/></g>
<g><path style="opacity:0.982" fill="#5f7f82" d="M 14.5,26.5 C 17.5497,28.5491 19.883,31.2157 21.5,34.5C 21.1675,47.85 21.5008,61.1833 22.5,74.5C 23.1667,62.0066 23.8333,49.6732 24.5,37.5C 27.5466,40.5448 30.2133,43.8781 32.5,47.5C 31.9756,54.252 33.9756,60.0853 38.5,65C 41.4781,65.696 44.4781,66.196 47.5,66.5C 50.5398,69.5393 53.2065,72.8726 55.5,76.5C 42.1662,78.3347 28.8329,78.5014 15.5,77C 13.714,76.2155 12.214,75.0488 11,73.5C 9.9363,69.2522 9.4363,64.9189 9.5,60.5C 9.96307,51.1647 10.4631,41.8314 11,32.5C 11.5637,30.1133 12.7304,28.1133 14.5,26.5 Z"/></g>
<g><path style="opacity:0.702" fill="#fdd800" d="M 72.5,27.5 C 78.8816,27.7718 79.0482,28.7718 73,30.5C 71.2716,29.6477 71.105,28.6477 72.5,27.5 Z"/></g>
<g><path style="opacity:1" fill="#3a4748" d="M 67.5,35.5 C 74.7609,38.5023 78.4276,44.0023 78.5,52C 78.7524,58.3415 76.0858,62.8415 70.5,65.5C 68.9731,65.573 67.9731,64.9063 67.5,63.5C 73.5475,61.4717 76.5475,57.1384 76.5,50.5C 76.1698,47.676 75.3365,45.0094 74,42.5C 73.1841,41.1772 72.0174,40.5106 70.5,40.5C 65.2549,37.2303 60.7549,38.2303 57,43.5C 55.872,45.3453 55.372,47.3453 55.5,49.5C 51.8616,45.5259 48.1949,41.5259 44.5,37.5C 52.3387,37.1178 60.0054,36.4512 67.5,35.5 Z"/></g>
<g><path style="opacity:1" fill="#aac5c8" d="M 70.5,40.5 C 72.0174,40.5106 73.1841,41.1772 74,42.5C 75.3365,45.0094 76.1698,47.676 76.5,50.5C 76.5475,57.1384 73.5475,61.4717 67.5,63.5C 63.1549,59.153 59.1549,54.4863 55.5,49.5C 55.372,47.3453 55.872,45.3453 57,43.5C 60.7549,38.2303 65.2549,37.2303 70.5,40.5 Z"/></g>
<g><path style="opacity:1" fill="#f1f6f6" d="M 70.5,40.5 C 73.3526,42.8679 74.5193,45.8679 74,49.5C 73.0518,44.7627 70.2185,41.9293 65.5,41C 67.1341,40.5065 68.8008,40.3398 70.5,40.5 Z"/></g>
<g><path style="opacity:1" fill="#475b5c" d="M 21.5,34.5 C 22.8333,35.1667 23.8333,36.1667 24.5,37.5C 23.8333,49.6732 23.1667,62.0066 22.5,74.5C 21.5008,61.1833 21.1675,47.85 21.5,34.5 Z"/></g>
<g><path style="opacity:1" fill="#3d494a" d="M 32.5,47.5 C 37.248,53.9761 42.248,60.3094 47.5,66.5C 44.4781,66.196 41.4781,65.696 38.5,65C 33.9756,60.0853 31.9756,54.252 32.5,47.5 Z"/></g>
<g><path style="opacity:0.403" fill="#000000" d="M 82.5,98.5 C 87.2589,98.6505 88.5923,101.317 86.5,106.5C 85.4826,103.972 84.3159,103.972 83,106.5C 82.5026,103.854 82.3359,101.187 82.5,98.5 Z M 83.5,100.5 C 85.6456,100.696 85.8122,101.696 84,103.5C 83.5172,102.552 83.3505,101.552 83.5,100.5 Z"/></g>
<g><path style="opacity:0.371" fill="#000000" d="M 1.5,100.5 C 6.81802,100.733 11.818,100.733 16.5,100.5C 17.1924,101.025 17.6924,101.692 18,102.5C 19.6667,99.8333 21.3333,99.8333 23,102.5C 25.1596,99.9194 27.3263,99.9194 29.5,102.5C 31.2787,99.7236 32.2787,100.057 32.5,103.5C 32.5034,106.602 32.0034,106.935 31,104.5C 28.5059,106.901 26.1726,106.901 24,104.5C 22,107.167 20,107.167 18,104.5C 17,107.167 16,107.167 15,104.5C 12.3847,107.07 9.71802,107.07 7,104.5C 5.64907,105.961 4.14907,107.294 2.5,108.5C 1.51998,105.914 1.18665,103.247 1.5,100.5 Z M 3.5,102.5 C 5.33702,102.639 5.67036,103.306 4.5,104.5C 3.70245,104.043 3.36912,103.376 3.5,102.5 Z"/></g>
<g><path style="opacity:0.386" fill="#000000" d="M 36.5,100.5 C 39.2721,101.235 41.9387,101.401 44.5,101C 45.5536,102.388 45.7203,103.888 45,105.5C 42.2678,105.459 39.4344,105.626 36.5,106C 35.2475,104.172 35.2475,102.339 36.5,100.5 Z M 37.5,102.5 C 38.675,102.281 39.675,102.614 40.5,103.5C 38.9483,104.798 37.9483,104.465 37.5,102.5 Z M 42.5,102.5 C 44.337,102.639 44.6704,103.306 43.5,104.5C 42.7025,104.043 42.3691,103.376 42.5,102.5 Z"/></g>
<g><path style="opacity:0.375" fill="#000000" d="M 49.5,100.5 C 54.8755,100.964 60.2088,100.964 65.5,100.5C 66.2164,101.311 67.0497,101.978 68,102.5C 69.52,101.493 71.1867,100.827 73,100.5C 75.1587,101.117 77.1587,101.117 79,100.5C 81.5897,101.687 82.0897,103.52 80.5,106C 77.6706,106.689 76.0039,105.522 75.5,102.5C 74.7189,103.729 74.2189,105.062 74,106.5C 72.8658,101.203 72.0325,101.203 71.5,106.5C 68.8806,106.768 66.3806,106.435 64,105.5C 62.3066,106.184 60.8066,107.184 59.5,108.5C 58.5197,107.019 57.353,105.685 56,104.5C 54.2298,106.418 52.0631,106.918 49.5,106C 48.2475,104.172 48.2475,102.339 49.5,100.5 Z M 50.5,102.5 C 51.675,102.281 52.675,102.614 53.5,103.5C 51.9483,104.798 50.9483,104.465 50.5,102.5 Z M 60.5,102.5 C 62.337,102.639 62.6704,103.306 61.5,104.5C 60.7025,104.043 60.3691,103.376 60.5,102.5 Z M 77.5,103.5 C 78.0768,102.227 78.7435,102.227 79.5,103.5C 79.0302,104.463 78.3635,104.463 77.5,103.5 Z"/></g>
<g><path style="opacity:0.401" fill="#000000" d="M 59.5,112.5 C 60.6879,113.684 61.8545,113.684 63,112.5C 64.6006,115.094 64.7673,117.761 63.5,120.5C 62.4826,117.972 61.3159,117.972 60,120.5C 59.5026,117.854 59.3359,115.187 59.5,112.5 Z M 60.5,114.5 C 63.0009,114.511 63.1676,115.178 61,116.5C 60.5357,115.906 60.369,115.239 60.5,114.5 Z"/></g>
<g><path style="opacity:0.367" fill="#000000" d="M 24.5,114.5 C 25.7498,114.577 26.5831,115.244 27,116.5C 27.3076,115.692 27.8076,115.025 28.5,114.5C 28.9976,115.603 29.3309,116.603 29.5,117.5C 30.3857,116.675 30.719,115.675 30.5,114.5C 31.8333,114.5 33.1667,114.5 34.5,114.5C 34.5,116.5 34.5,118.5 34.5,120.5C 31.6354,120.945 29.1354,120.278 27,118.5C 26.6924,119.308 26.1924,119.975 25.5,120.5C 24.5344,118.604 24.2011,116.604 24.5,114.5 Z"/></g>
<g><path style="opacity:0.393" fill="#000000" d="M 49.5,122.5 C 48.8333,122.5 48.1667,122.5 47.5,122.5C 47.6602,120.801 47.4935,119.134 47,117.5C 46.5172,118.448 46.3505,119.448 46.5,120.5C 43.1323,119.867 39.7989,119.867 36.5,120.5C 35.1667,118.5 35.1667,116.5 36.5,114.5C 37.8333,117.167 39.1667,117.167 40.5,114.5C 41.1924,115.025 41.6924,115.692 42,116.5C 43.6667,113.833 45.3333,113.833 47,116.5C 51.4422,113.405 53.2755,114.738 52.5,120.5C 50.8212,120.285 49.8212,120.952 49.5,122.5 Z M 49.5,116.5 C 51.337,116.639 51.6704,117.306 50.5,118.5C 49.7025,118.043 49.3691,117.376 49.5,116.5 Z"/></g>
<g><path style="opacity:0.45" fill="#000000" d="M 54.5,114.5 C 58.35,114.701 59.35,116.534 57.5,120C 53.5369,120.118 52.5369,118.284 54.5,114.5 Z M 54.5,116.5 C 56.337,116.639 56.6704,117.306 55.5,118.5C 54.7025,118.043 54.3691,117.376 54.5,116.5 Z"/></g>
</svg>
