<?xml version="1.0" encoding="UTF-8"?>
<!DOCTYPE svg PUBLIC "-//W3C//DTD SVG 1.1//EN" "http://www.w3.org/Graphics/SVG/1.1/DTD/svg11.dtd">
<svg xmlns="http://www.w3.org/2000/svg" version="1.1" width="70px" height="70px" style="shape-rendering:geometricPrecision; text-rendering:geometricPrecision; image-rendering:optimizeQuality; fill-rule:evenodd; clip-rule:evenodd" xmlns:xlink="http://www.w3.org/1999/xlink">
<g><path style="opacity:0.14" fill="#4e4e4e" d="M 21.5,-0.5 C 30.1667,-0.5 38.8333,-0.5 47.5,-0.5C 52.065,1.4539 56.3983,3.9539 60.5,7C 64.4151,11.3435 67.4151,16.1768 69.5,21.5C 69.5,30.1667 69.5,38.8333 69.5,47.5C 65.8333,58.5 58.5,65.8333 47.5,69.5C 38.8333,69.5 30.1667,69.5 21.5,69.5C 10.5,65.8333 3.16667,58.5 -0.5,47.5C -0.5,38.8333 -0.5,30.1667 -0.5,21.5C 3.16667,10.5 10.5,3.16667 21.5,-0.5 Z"/></g>
<g><path style="opacity:0.997" fill="#e25959" d="M 27.5,21.5 C 29.8432,24.2072 32.1765,26.8739 34.5,29.5C 36.5,32.1667 38.8333,34.5 41.5,36.5C 43.4719,40.1051 46.1385,43.1051 49.5,45.5C 51.1271,47.6298 52.9604,49.6298 55,51.5C 57.0364,54.6019 58.0364,57.9352 58,61.5C 50.6917,62.7637 45.1917,60.097 41.5,53.5C 39.8333,51.1667 37.8333,49.1667 35.5,47.5C 32.8715,43.5373 29.8715,39.8706 26.5,36.5C 23.1793,31.8482 19.5126,27.5149 15.5,23.5C 12.0085,19.5612 10.3418,14.8945 10.5,9.5C 17.784,11.1039 23.4506,15.1039 27.5,21.5 Z"/></g>
<g><path style="opacity:0.89" fill="#c1a621" d="M 46.5,14.5 C 47.782,15.7082 47.782,17.0416 46.5,18.5C 45.7084,17.3002 45.7084,15.9669 46.5,14.5 Z"/></g>
<g><path style="opacity:0.733" fill="#b79f25" d="M 51.5,17.5 C 52.3764,17.3691 53.0431,17.7025 53.5,18.5C 52.2954,20.1376 50.9621,20.4709 49.5,19.5C 50.2427,18.8182 50.9094,18.1515 51.5,17.5 Z"/></g>
<g><path style="opacity:0.975" fill="#607a7c" d="M 27.5,21.5 C 33.5092,21.3338 39.5092,21.5005 45.5,22C 47.9193,23.5088 48.9193,25.6755 48.5,28.5C 43.7858,28.3531 39.1191,28.6864 34.5,29.5C 32.1765,26.8739 29.8432,24.2072 27.5,21.5 Z"/></g>
<g><path style="opacity:0.984" fill="#5c7779" d="M 15.5,23.5 C 19.5126,27.5149 23.1793,31.8482 26.5,36.5C 26.259,39.7935 27.0924,42.7935 29,45.5C 30.7889,47.229 32.9556,47.8957 35.5,47.5C 37.8333,49.1667 39.8333,51.1667 41.5,53.5C 32.4104,55.9041 23.2437,55.9041 14,53.5C 12.3909,44.602 12.0576,35.602 13,26.5C 13.3768,25.0577 14.2101,24.0577 15.5,23.5 Z"/></g>
<g><path style="opacity:0.867" fill="#c1a621" d="M 51.5,22.5 C 52.675,22.281 53.675,22.6143 54.5,23.5C 52.9483,24.7979 51.9483,24.4646 51.5,22.5 Z"/></g>
<g><path style="opacity:1" fill="#a2b6b9" d="M 49.5,45.5 C 46.1385,43.1051 43.4719,40.1051 41.5,36.5C 42.293,31.2241 45.293,29.3908 50.5,31C 55.9744,36.401 55.6411,41.2343 49.5,45.5 Z"/></g>
<g><path style="opacity:1" fill="#424c4d" d="M 26.5,36.5 C 29.8715,39.8706 32.8715,43.5373 35.5,47.5C 32.9556,47.8957 30.7889,47.229 29,45.5C 27.0924,42.7935 26.259,39.7935 26.5,36.5 Z"/></g>
</svg>
