<?xml version="1.0" encoding="UTF-8"?>
<!DOCTYPE svg PUBLIC "-//W3C//DTD SVG 1.1//EN" "http://www.w3.org/Graphics/SVG/1.1/DTD/svg11.dtd">
<svg xmlns="http://www.w3.org/2000/svg" version="1.1" width="70px" height="70px" style="shape-rendering:geometricPrecision; text-rendering:geometricPrecision; image-rendering:optimizeQuality; fill-rule:evenodd; clip-rule:evenodd" xmlns:xlink="http://www.w3.org/1999/xlink">
<g><path style="opacity:0.14" fill="#4e4e4e" d="M 21.5,-0.5 C 30.1667,-0.5 38.8333,-0.5 47.5,-0.5C 52.065,1.4539 56.3983,3.9539 60.5,7C 64.4151,11.3435 67.4151,16.1768 69.5,21.5C 69.5,30.1667 69.5,38.8333 69.5,47.5C 65.8333,58.5 58.5,65.8333 47.5,69.5C 38.8333,69.5 30.1667,69.5 21.5,69.5C 10.5,65.8333 3.16667,58.5 -0.5,47.5C -0.5,38.8333 -0.5,30.1667 -0.5,21.5C 3.16667,10.5 10.5,3.16667 21.5,-0.5 Z"/></g>
<g><path style="opacity:0.992" fill="#f35a5a" d="M 32.5,21.5 C 32.5,22.8333 32.5,24.1667 32.5,25.5C 31.9988,29.7112 30.3321,30.3779 27.5,27.5C 27.7947,25.2646 27.4614,23.2646 26.5,21.5C 26.631,20.7611 26.4643,20.0944 26,19.5C 22.3176,21.1373 19.1509,20.4706 16.5,17.5C 19.447,15.2961 22.7804,14.2961 26.5,14.5C 26.3359,11.8127 26.5026,9.14603 27,6.5C 29.2774,2.45312 30.944,2.78645 32,7.5C 32.4955,9.4727 32.6621,11.4727 32.5,13.5C 35.8333,13.5 39.1667,13.5 42.5,13.5C 42.7135,15.1439 42.3802,16.6439 41.5,18C 37.9671,18.3705 34.9671,19.5372 32.5,21.5 Z"/></g>
<g><path style="opacity:1" fill="#9f7d4f" d="M 16.5,40.5 C 17.3996,45.3322 18.0662,50.3322 18.5,55.5C 17.7321,54.7375 17.2321,53.7375 17,52.5C 14.9764,54.346 12.6431,55.6793 10,56.5C 8.5,56.3333 7.66667,55.5 7.5,54C 9.64942,48.8487 12.6494,44.3487 16.5,40.5 Z"/></g>
<g><path style="opacity:1" fill="#b9965f" d="M 18.5,55.5 C 18.0662,50.3322 17.3996,45.3322 16.5,40.5C 15.4428,34.8234 15.4428,29.1567 16.5,23.5C 19.8208,22.7402 23.1541,22.0736 26.5,21.5C 27.4614,23.2646 27.7947,25.2646 27.5,27.5C 26.2132,28.8714 25.5465,30.7047 25.5,33C 26.1212,38.8465 26.7878,44.6798 27.5,50.5C 37.8607,50.0426 48.194,49.3759 58.5,48.5C 57.7806,40.1313 56.7806,31.798 55.5,23.5C 47.8672,24.4965 40.2005,25.1632 32.5,25.5C 32.5,24.1667 32.5,22.8333 32.5,21.5C 41.4165,19.6805 50.4165,18.5139 59.5,18C 62.1044,29.3345 63.6044,40.8345 64,52.5C 49.9313,54.5769 35.7646,56.2435 21.5,57.5C 19.9704,57.3601 18.9704,56.6935 18.5,55.5 Z"/></g>
<g><path style="opacity:1" fill="#e9eae8" d="M 27.5,27.5 C 30.3321,30.3779 31.9988,29.7112 32.5,25.5C 40.2005,25.1632 47.8672,24.4965 55.5,23.5C 56.7806,31.798 57.7806,40.1313 58.5,48.5C 48.194,49.3759 37.8607,50.0426 27.5,50.5C 26.7878,44.6798 26.1212,38.8465 25.5,33C 25.5465,30.7047 26.2132,28.8714 27.5,27.5 Z"/></g>
<g><path style="opacity:1" fill="#96abad" d="M 40.5,32.5 C 41.4959,32.4142 42.3292,32.7476 43,33.5C 43.3333,35.5 43.6667,37.5 44,39.5C 45.3088,37.0243 47.1421,35.0243 49.5,33.5C 51.0691,34.714 51.9024,36.3807 52,38.5C 52.7175,37.5494 53.5509,37.3828 54.5,38C 53.3147,39.353 51.9814,40.5197 50.5,41.5C 49.5713,40.3112 49.238,38.9778 49.5,37.5C 48.448,37.3505 47.448,37.5172 46.5,38C 45.3601,39.9734 44.0267,41.8067 42.5,43.5C 41.5481,41.9547 41.2148,40.288 41.5,38.5C 40.0695,38.4208 38.7362,38.7542 37.5,39.5C 36.6919,39.1924 36.0253,38.6924 35.5,38C 37.3734,36.2962 39.0401,34.4628 40.5,32.5 Z"/></g>
<g><path style="opacity:1" fill="#fadf6a" d="M 31.5,31.5 C 33.9118,31.6941 34.9118,33.0274 34.5,35.5C 31.0464,35.7332 30.0464,34.3999 31.5,31.5 Z"/></g>
</svg>
