<?xml version="1.0" encoding="UTF-8"?>
<!DOCTYPE svg PUBLIC "-//W3C//DTD SVG 1.1//EN" "http://www.w3.org/Graphics/SVG/1.1/DTD/svg11.dtd">
<svg xmlns="http://www.w3.org/2000/svg" version="1.1" width="89px" height="78px" style="shape-rendering:geometricPrecision; text-rendering:geometricPrecision; image-rendering:optimizeQuality; fill-rule:evenodd; clip-rule:evenodd" xmlns:xlink="http://www.w3.org/1999/xlink">
<g><path style="opacity:0.903" fill="#fe5a5a" d="M 33.5,-0.5 C 34.1667,-0.5 34.8333,-0.5 35.5,-0.5C 37.4611,4.25674 38.4611,9.25674 38.5,14.5C 42.8076,13.6324 47.141,13.4657 51.5,14C 52.91,14.3678 53.91,15.2011 54.5,16.5C 53.5,17.8333 52.5,19.1667 51.5,20.5C 48.2225,21.38 44.8892,22.0467 41.5,22.5C 39.9704,22.6399 38.9704,23.3065 38.5,24.5C 38.5,26.8333 38.5,29.1667 38.5,31.5C 37.491,37.1779 35.1577,37.8445 31.5,33.5C 30.9084,30.8728 30.5751,28.2062 30.5,25.5C 30.6495,24.448 30.4828,23.448 30,22.5C 26.2564,23.626 22.423,23.7927 18.5,23C 13.1667,21 13.1667,19 18.5,17C 22.466,16.1721 26.466,15.6721 30.5,15.5C 30.3345,11.4862 30.5012,7.48617 31,3.5C 31.6622,2.01608 32.4955,0.682751 33.5,-0.5 Z"/></g>
<g><path style="opacity:0.972" fill="#bb975e" d="M 30.5,77.5 C 26.5,77.5 22.5,77.5 18.5,77.5C 17.6314,75.283 17.298,72.9496 17.5,70.5C 17.3484,64.3015 16.6818,58.3015 15.5,52.5C 14.446,44.5216 13.946,36.5216 14,28.5C 19.3565,26.8911 24.8565,25.8911 30.5,25.5C 30.5751,28.2062 30.9084,30.8728 31.5,33.5C 30.5,33.5 29.5,33.5 28.5,33.5C 29.0304,43.026 30.0304,52.3594 31.5,61.5C 31.5,61.8333 31.5,62.1667 31.5,62.5C 31.5,64.5 31.5,66.5 31.5,68.5C 46.5385,67.4239 61.5385,66.0906 76.5,64.5C 76.6787,58.5958 76.0121,52.9291 74.5,47.5C 74.5,46.8333 74.5,46.1667 74.5,45.5C 74.3651,39.819 74.0318,34.1523 73.5,28.5C 61.8274,29.4266 50.1607,30.4266 38.5,31.5C 38.5,29.1667 38.5,26.8333 38.5,24.5C 51.8054,22.5031 65.1387,21.0031 78.5,20C 79,20.5 79.5,21 80,21.5C 82.6595,37.7624 84.3262,54.0957 85,70.5C 83.9326,71.1905 82.7659,71.6905 81.5,72C 64.3372,73.7151 47.3372,75.5484 30.5,77.5 Z"/></g>
<g><path style="opacity:1" fill="#ebedec" d="M 74.5,45.5 C 71.9066,46.7536 69.5732,48.4202 67.5,50.5C 66.7267,48.187 66.0601,45.8537 65.5,43.5C 64.635,42.4173 63.635,42.2506 62.5,43C 60,46.1667 57.5,49.3333 55,52.5C 54.6667,49.1667 54.3333,45.8333 54,42.5C 52.9505,41.4829 51.7839,41.3162 50.5,42C 43.964,48.3685 37.6306,54.8685 31.5,61.5C 30.0304,52.3594 29.0304,43.026 28.5,33.5C 29.5,33.5 30.5,33.5 31.5,33.5C 35.1577,37.8445 37.491,37.1779 38.5,31.5C 50.1607,30.4266 61.8274,29.4266 73.5,28.5C 74.0318,34.1523 74.3651,39.819 74.5,45.5 Z"/></g>
<g><path style="opacity:1" fill="#fad83a" d="M 38.5,39.5 C 39.4959,39.4142 40.3292,39.7476 41,40.5C 41.4935,42.1341 41.6602,43.8008 41.5,45.5C 39.8333,45.5 38.1667,45.5 36.5,45.5C 36.2587,43.1137 36.9254,41.1137 38.5,39.5 Z"/></g>
<g><path style="opacity:1" fill="#f4edcc" d="M 38.5,41.5 C 40.7602,42.2376 40.9269,43.2376 39,44.5C 37.2716,43.6477 37.105,42.6477 38.5,41.5 Z"/></g>
<g><path style="opacity:1" fill="#718e91" d="M 74.5,45.5 C 74.5,46.1667 74.5,46.8333 74.5,47.5C 71.2111,49.6158 68.0444,51.9491 65,54.5C 64.8078,52.4233 64.3078,50.4233 63.5,48.5C 58.5887,50.2422 55.0887,53.5755 53,58.5C 52.5026,55.854 52.3359,53.1873 52.5,50.5C 49.4816,50.3354 46.4816,50.502 43.5,51C 39.631,55.037 35.631,58.8704 31.5,62.5C 31.5,62.1667 31.5,61.8333 31.5,61.5C 37.6306,54.8685 43.964,48.3685 50.5,42C 51.7839,41.3162 52.9505,41.4829 54,42.5C 54.3333,45.8333 54.6667,49.1667 55,52.5C 57.5,49.3333 60,46.1667 62.5,43C 63.635,42.2506 64.635,42.4173 65.5,43.5C 66.0601,45.8537 66.7267,48.187 67.5,50.5C 69.5732,48.4202 71.9066,46.7536 74.5,45.5 Z"/></g>
<g><path style="opacity:1" fill="#ccd5d5" d="M 62.5,44.5 C 64.0281,44.5173 64.5281,45.184 64,46.5C 60.1887,47.9662 59.6887,47.2996 62.5,44.5 Z"/></g>
<g><path style="opacity:1" fill="#dee3e3" d="M 51.5,43.5 C 53.7099,44.4551 54.0432,45.9551 52.5,48C 50.1214,48.6139 47.788,48.9472 45.5,49C 47.3962,46.932 49.3962,45.0987 51.5,43.5 Z"/></g>
<g><path style="opacity:1" fill="#efefee" d="M 74.5,47.5 C 76.0121,52.9291 76.6787,58.5958 76.5,64.5C 61.5385,66.0906 46.5385,67.4239 31.5,68.5C 31.5,66.5 31.5,64.5 31.5,62.5C 35.631,58.8704 39.631,55.037 43.5,51C 46.4816,50.502 49.4816,50.3354 52.5,50.5C 52.3359,53.1873 52.5026,55.854 53,58.5C 55.0887,53.5755 58.5887,50.2422 63.5,48.5C 64.3078,50.4233 64.8078,52.4233 65,54.5C 68.0444,51.9491 71.2111,49.6158 74.5,47.5 Z"/></g>
<g><path style="opacity:0.936" fill="#a37f4f" d="M 15.5,52.5 C 16.6818,58.3015 17.3484,64.3015 17.5,70.5C 13.9409,72.8643 10.1076,74.8643 6,76.5C 3.94197,75.9422 2.77531,74.6089 2.5,72.5C 5.34952,64.7833 9.68285,58.1166 15.5,52.5 Z"/></g>
</svg>
