<?xml version="1.0" encoding="UTF-8"?>
<!DOCTYPE svg PUBLIC "-//W3C//DTD SVG 1.1//EN" "http://www.w3.org/Graphics/SVG/1.1/DTD/svg11.dtd">
<svg xmlns="http://www.w3.org/2000/svg" version="1.1" width="70px" height="70px" style="shape-rendering:geometricPrecision; text-rendering:geometricPrecision; image-rendering:optimizeQuality; fill-rule:evenodd; clip-rule:evenodd" xmlns:xlink="http://www.w3.org/1999/xlink">
<g><path style="opacity:0.139" fill="#4e4e4e" d="M 21.5,-0.5 C 30.1667,-0.5 38.8333,-0.5 47.5,-0.5C 52.065,1.4539 56.3983,3.9539 60.5,7C 64.4151,11.3435 67.4151,16.1768 69.5,21.5C 69.5,30.1667 69.5,38.8333 69.5,47.5C 65.8333,58.5 58.5,65.8333 47.5,69.5C 38.8333,69.5 30.1667,69.5 21.5,69.5C 10.5,65.8333 3.16667,58.5 -0.5,47.5C -0.5,38.8333 -0.5,30.1667 -0.5,21.5C 3.16667,10.5 10.5,3.16667 21.5,-0.5 Z"/></g>
<g><path style="opacity:0.99" fill="#f45b59" d="M 32.5,21.5 C 32.5,22.8333 32.5,24.1667 32.5,25.5C 31.6216,30.3991 29.9549,30.7324 27.5,26.5C 27.7845,24.5853 27.4511,22.9187 26.5,21.5C 26.6309,20.6236 26.2975,19.9569 25.5,19.5C 21.944,21.123 18.944,20.4563 16.5,17.5C 19.447,15.2961 22.7804,14.2961 26.5,14.5C 26.3367,12.1432 26.5034,9.80982 27,7.5C 28.6667,2.16667 30.3333,2.16667 32,7.5C 32.4955,9.4727 32.6621,11.4727 32.5,13.5C 35.8333,13.5 39.1667,13.5 42.5,13.5C 42.7135,15.1439 42.3802,16.6439 41.5,18C 37.9671,18.3705 34.9671,19.5372 32.5,21.5 Z"/></g>
<g><path style="opacity:1" fill="#9f7d4f" d="M 16.5,40.5 C 17.4834,44.2984 17.8168,48.2984 17.5,52.5C 15.2495,54.2099 12.7495,55.5432 10,56.5C 8.5,56.3333 7.66667,55.5 7.5,54C 9.64942,48.8487 12.6494,44.3487 16.5,40.5 Z"/></g>
<g><path style="opacity:1" fill="#b9965e" d="M 17.5,52.5 C 17.8168,48.2984 17.4834,44.2984 16.5,40.5C 15.4428,34.8234 15.4428,29.1567 16.5,23.5C 19.8208,22.7402 23.1541,22.0736 26.5,21.5C 27.4511,22.9187 27.7845,24.5853 27.5,26.5C 26.8826,26.6107 26.3826,26.944 26,27.5C 25.6019,35.2174 26.1019,42.884 27.5,50.5C 37.8565,50.0673 48.1899,49.4006 58.5,48.5C 57.7806,40.1313 56.7806,31.798 55.5,23.5C 47.8563,24.4137 40.1897,25.0804 32.5,25.5C 32.5,24.1667 32.5,22.8333 32.5,21.5C 41.4165,19.6805 50.4165,18.5139 59.5,18C 62.1044,29.3345 63.6044,40.8345 64,52.5C 49.7653,54.6044 35.432,56.2711 21,57.5C 18.367,56.9106 17.2003,55.244 17.5,52.5 Z"/></g>
<g><path style="opacity:1" fill="#e8eae8" d="M 27.5,26.5 C 29.9549,30.7324 31.6216,30.3991 32.5,25.5C 40.1897,25.0804 47.8563,24.4137 55.5,23.5C 56.7806,31.798 57.7806,40.1313 58.5,48.5C 48.1899,49.4006 37.8565,50.0673 27.5,50.5C 26.1019,42.884 25.6019,35.2174 26,27.5C 26.3826,26.944 26.8826,26.6107 27.5,26.5 Z"/></g>
<g><path style="opacity:1" fill="#95aaac" d="M 40.5,32.5 C 41.4959,32.4142 42.3292,32.7476 43,33.5C 43.3333,35.5 43.6667,37.5 44,39.5C 45.3088,37.0243 47.1421,35.0243 49.5,33.5C 51.0691,34.714 51.9024,36.3807 52,38.5C 52.7175,37.5494 53.5509,37.3828 54.5,38C 53.3147,39.353 51.9814,40.5197 50.5,41.5C 49.5713,40.3112 49.238,38.9778 49.5,37.5C 48.448,37.3505 47.448,37.5172 46.5,38C 45,40.1667 43.5,42.3333 42,44.5C 41.5045,42.5273 41.3379,40.5273 41.5,38.5C 40.0695,38.4208 38.7362,38.7542 37.5,39.5C 36.6919,39.1924 36.0253,38.6924 35.5,38C 37.3734,36.2962 39.0401,34.4628 40.5,32.5 Z"/></g>
<g><path style="opacity:1" fill="#f8d960" d="M 31.5,31.5 C 32.5,31.5 33.5,31.5 34.5,31.5C 34.5,32.8333 34.5,34.1667 34.5,35.5C 33.1667,35.5 31.8333,35.5 30.5,35.5C 30.4326,34.0413 30.7659,32.7079 31.5,31.5 Z"/></g>
</svg>
