<?xml version="1.0" encoding="UTF-8"?>
<!DOCTYPE svg PUBLIC "-//W3C//DTD SVG 1.1//EN" "http://www.w3.org/Graphics/SVG/1.1/DTD/svg11.dtd">
<svg xmlns="http://www.w3.org/2000/svg" version="1.1" width="59px" height="54px" style="shape-rendering:geometricPrecision; text-rendering:geometricPrecision; image-rendering:optimizeQuality; fill-rule:evenodd; clip-rule:evenodd" xmlns:xlink="http://www.w3.org/1999/xlink">
<g><path style="opacity:0.831" fill="#fe5b5a" d="M 21.5,-0.5 C 22.1667,-0.5 22.8333,-0.5 23.5,-0.5C 25.0226,2.62969 25.6893,5.96302 25.5,9.5C 28.8333,9.5 32.1667,9.5 35.5,9.5C 35.7135,11.1439 35.3802,12.6439 34.5,14C 31.3718,14.8412 28.3718,15.6746 25.5,16.5C 25.5,18.1667 25.5,19.8333 25.5,21.5C 24.9988,25.7112 23.3321,26.3779 20.5,23.5C 20.7947,21.2646 20.4614,19.2646 19.5,17.5C 19.631,16.7611 19.4643,16.0944 19,15.5C 15.3176,17.1373 12.1509,16.4706 9.5,13.5C 12.447,11.2961 15.7804,10.2961 19.5,10.5C 19.1113,6.58626 19.7779,2.91959 21.5,-0.5 Z"/></g>
<g><path style="opacity:0.997" fill="#bc985f" d="M 18.5,53.5 C 16.1667,53.5 13.8333,53.5 11.5,53.5C 10.6993,51.9582 10.366,50.2915 10.5,48.5C 10.8168,44.2984 10.4834,40.2984 9.5,36.5C 8.54086,30.8615 8.3742,25.1949 9,19.5C 12.4548,18.7126 15.9548,18.0459 19.5,17.5C 20.4614,19.2646 20.7947,21.2646 20.5,23.5C 19.3509,23.7911 18.6842,24.6244 18.5,26C 19.1379,31.1921 19.8045,36.3588 20.5,41.5C 20.5,42.1667 20.5,42.8333 20.5,43.5C 20.5,44.5 20.5,45.5 20.5,46.5C 30.8288,45.7671 41.1621,45.1005 51.5,44.5C 51.4681,39.6093 50.8015,34.9426 49.5,30.5C 49.2756,26.8212 48.9422,23.1545 48.5,19.5C 40.8563,20.4137 33.1897,21.0804 25.5,21.5C 25.5,19.8333 25.5,18.1667 25.5,16.5C 33.8853,15.9689 42.2186,14.9689 50.5,13.5C 51.4419,13.6082 52.2753,13.9415 53,14.5C 55.3214,25.7365 56.6547,37.0698 57,48.5C 44.1154,50.5356 31.2821,52.2022 18.5,53.5 Z"/></g>
<g><path style="opacity:1" fill="#e6e9e8" d="M 49.5,30.5 C 49.7148,32.1788 49.0481,33.1788 47.5,33.5C 46.5041,33.4142 45.6708,33.7476 45,34.5C 44.9024,32.3807 44.0691,30.714 42.5,29.5C 40.0623,30.9308 38.3956,32.9308 37.5,35.5C 36.6909,33.7078 36.1909,31.7078 36,29.5C 35.3873,33.3177 33.3873,34.3177 30,32.5C 29.2828,33.0442 28.7828,33.7109 28.5,34.5C 27.5977,36.3407 26.2644,37.674 24.5,38.5C 23.1667,39.5 21.8333,40.5 20.5,41.5C 19.8045,36.3588 19.1379,31.1921 18.5,26C 18.6842,24.6244 19.3509,23.7911 20.5,23.5C 23.3321,26.3779 24.9988,25.7112 25.5,21.5C 33.1897,21.0804 40.8563,20.4137 48.5,19.5C 48.9422,23.1545 49.2756,26.8212 49.5,30.5 Z"/></g>
<g><path style="opacity:1" fill="#f8da4a" d="M 26.5,28.5 C 25.5,28.8333 24.8333,29.5 24.5,30.5C 23.475,30.1034 23.3083,29.4368 24,28.5C 24.9772,27.2264 25.8106,27.2264 26.5,28.5 Z"/></g>
<g><path style="opacity:1" fill="#eddfbe" d="M 26.5,28.5 C 26.5,29.8333 25.8333,30.5 24.5,30.5C 24.8333,29.5 25.5,28.8333 26.5,28.5 Z"/></g>
<g><path style="opacity:1" fill="#f8da4d" d="M 26.5,28.5 C 27.404,29.209 27.7373,30.209 27.5,31.5C 26.209,31.7373 25.209,31.404 24.5,30.5C 25.8333,30.5 26.5,29.8333 26.5,28.5 Z"/></g>
<g><path style="opacity:1" fill="#93a8a9" d="M 47.5,33.5 C 44.9624,38.3605 43.2958,38.3605 42.5,33.5C 40.4862,33.3915 38.8195,34.0582 37.5,35.5C 38.3956,32.9308 40.0623,30.9308 42.5,29.5C 44.0691,30.714 44.9024,32.3807 45,34.5C 45.6708,33.7476 46.5041,33.4142 47.5,33.5 Z"/></g>
<g><path style="opacity:1" fill="#efefee" d="M 49.5,30.5 C 50.8015,34.9426 51.4681,39.6093 51.5,44.5C 41.1621,45.1005 30.8288,45.7671 20.5,46.5C 20.5,45.5 20.5,44.5 20.5,43.5C 22.5869,42.4154 23.9202,40.7488 24.5,38.5C 26.2644,37.674 27.5977,36.3407 28.5,34.5C 30.3881,35.2751 32.3881,35.2751 34.5,34.5C 34.6396,40.4829 35.6396,40.8163 37.5,35.5C 38.8195,34.0582 40.4862,33.3915 42.5,33.5C 43.2958,38.3605 44.9624,38.3605 47.5,33.5C 49.0481,33.1788 49.7148,32.1788 49.5,30.5 Z"/></g>
<g><path style="opacity:0.899" fill="#a37f4e" d="M 9.5,36.5 C 10.4834,40.2984 10.8168,44.2984 10.5,48.5C 8.64599,50.5959 6.31266,51.9293 3.5,52.5C 1.73362,52.5658 0.733617,51.7324 0.5,50C 2.64942,44.8487 5.64942,40.3487 9.5,36.5 Z"/></g>
<g><path style="opacity:1" fill="#849c9e" d="M 37.5,35.5 C 35.6396,40.8163 34.6396,40.4829 34.5,34.5C 32.3881,35.2751 30.3881,35.2751 28.5,34.5C 28.7828,33.7109 29.2828,33.0442 30,32.5C 33.3873,34.3177 35.3873,33.3177 36,29.5C 36.1909,31.7078 36.6909,33.7078 37.5,35.5 Z"/></g>
<g><path style="opacity:1" fill="#96aaac" d="M 24.5,38.5 C 23.9202,40.7488 22.5869,42.4154 20.5,43.5C 20.5,42.8333 20.5,42.1667 20.5,41.5C 21.8333,40.5 23.1667,39.5 24.5,38.5 Z"/></g>
</svg>
