<?xml version="1.0" encoding="UTF-8"?>
<!DOCTYPE svg PUBLIC "-//W3C//DTD SVG 1.1//EN" "http://www.w3.org/Graphics/SVG/1.1/DTD/svg11.dtd">
<svg xmlns="http://www.w3.org/2000/svg" version="1.1" width="70px" height="70px" style="shape-rendering:geometricPrecision; text-rendering:geometricPrecision; image-rendering:optimizeQuality; fill-rule:evenodd; clip-rule:evenodd" xmlns:xlink="http://www.w3.org/1999/xlink">
<g><path style="opacity:0.139" fill="#4e4e4e" d="M 21.5,-0.5 C 30.1667,-0.5 38.8333,-0.5 47.5,-0.5C 52.065,1.4539 56.3983,3.9539 60.5,7C 64.4151,11.3435 67.4151,16.1768 69.5,21.5C 69.5,30.1667 69.5,38.8333 69.5,47.5C 65.8333,58.5 58.5,65.8333 47.5,69.5C 38.8333,69.5 30.1667,69.5 21.5,69.5C 10.5,65.8333 3.16667,58.5 -0.5,47.5C -0.5,38.8333 -0.5,30.1667 -0.5,21.5C 3.16667,10.5 10.5,3.16667 21.5,-0.5 Z"/></g>
<g><path style="opacity:1" fill="#bf5246" d="M 55.5,23.5 C 56.4972,23.4701 57.1639,23.9701 57.5,25C 56.0564,34.1627 54.7231,43.3294 53.5,52.5C 45.1027,54.661 36.7694,55.3277 28.5,54.5C 36.3357,53.2399 44.169,52.2399 52,51.5C 53.0584,42.139 54.2251,32.8057 55.5,23.5 Z"/></g>
<g><path style="opacity:1" fill="#efedec" d="M 55.5,23.5 C 54.2251,32.8057 53.0584,42.139 52,51.5C 44.169,52.2399 36.3357,53.2399 28.5,54.5C 23.5787,52.0541 18.2454,51.0541 12.5,51.5C 12.5,43.8333 12.5,36.1667 12.5,28.5C 12.5,26.8333 12.5,25.1667 12.5,23.5C 13.5,23.5 14.5,23.5 15.5,23.5C 15.5,22.5 15.5,21.5 15.5,20.5C 21.606,18.2485 27.106,19.5818 32,24.5C 34.5759,19.9543 38.4092,16.9543 43.5,15.5C 44.2811,16.7287 44.7811,18.062 45,19.5C 47.6212,18.0085 50.4545,17.3418 53.5,17.5C 53.595,19.7857 54.2616,21.7857 55.5,23.5 Z"/></g>
<g><path style="opacity:1" fill="#b95348" d="M 12.5,28.5 C 12.5,36.1667 12.5,43.8333 12.5,51.5C 18.2454,51.0541 23.5787,52.0541 28.5,54.5C 22.5881,53.7648 16.7548,52.7648 11,51.5C 10.5741,43.6387 11.0741,35.972 12.5,28.5 Z"/></g>
</svg>
