<?xml version="1.0" encoding="UTF-8"?>
<!DOCTYPE svg PUBLIC "-//W3C//DTD SVG 1.1//EN" "http://www.w3.org/Graphics/SVG/1.1/DTD/svg11.dtd">
<svg xmlns="http://www.w3.org/2000/svg" version="1.1" width="89px" height="66px" style="shape-rendering:geometricPrecision; text-rendering:geometricPrecision; image-rendering:optimizeQuality; fill-rule:evenodd; clip-rule:evenodd" xmlns:xlink="http://www.w3.org/1999/xlink">
<g><path style="opacity:0.987" fill="#f0f0ef" d="M 78.5,12.5 C 76.5548,27.6718 74.5548,42.8384 72.5,58C 61.1858,58.4693 50.0192,59.9693 39,62.5C 29.4625,59.0258 19.6292,57.0258 9.5,56.5C 9.39628,42.1532 9.72961,27.8199 10.5,13.5C 13.8396,12.9764 15.5062,10.9764 15.5,7.5C 16.8333,7.5 18.1667,7.5 19.5,7.5C 19.5,6.5 19.5,5.5 19.5,4.5C 28.2565,5.62837 35.7565,9.29503 42,15.5C 45.2818,7.06091 51.4485,2.06091 60.5,0.5C 60.3379,2.5273 60.5045,4.5273 61,6.5C 65.2932,4.67419 69.7932,3.67419 74.5,3.5C 74.9759,7.03831 76.3093,10.0383 78.5,12.5 Z"/></g>
<g><path style="opacity:0.788" fill="#c75041" d="M 78.5,12.5 C 79.7647,13.5145 80.4313,15.0145 80.5,17C 78.6496,31.4871 76.9829,45.9871 75.5,60.5C 63.5798,61.0351 51.7465,62.3684 40,64.5C 29.4362,61.0449 18.6029,59.0449 7.5,58.5C 7.03924,43.2515 8.03924,28.2515 10.5,13.5C 9.72961,27.8199 9.39628,42.1532 9.5,56.5C 19.6292,57.0258 29.4625,59.0258 39,62.5C 50.0192,59.9693 61.1858,58.4693 72.5,58C 74.5548,42.8384 76.5548,27.6718 78.5,12.5 Z"/></g>
</svg>
