<?xml version="1.0" encoding="UTF-8"?>
<!DOCTYPE svg PUBLIC "-//W3C//DTD SVG 1.1//EN" "http://www.w3.org/Graphics/SVG/1.1/DTD/svg11.dtd">
<svg xmlns="http://www.w3.org/2000/svg" version="1.1" width="59px" height="41px" style="shape-rendering:geometricPrecision; text-rendering:geometricPrecision; image-rendering:optimizeQuality; fill-rule:evenodd; clip-rule:evenodd" xmlns:xlink="http://www.w3.org/1999/xlink">
<g><path style="opacity:0.966" fill="#f0efee" d="M 37.5,-0.5 C 38.1667,-0.5 38.8333,-0.5 39.5,-0.5C 39.3433,0.873441 39.51,2.20677 40,3.5C 45.5251,-0.0892014 49.0251,1.24413 50.5,7.5C 49.3462,17.0598 48.0129,26.5598 46.5,36C 39.7263,36.1257 33.0596,36.9591 26.5,38.5C 20.1337,36.653 13.8003,35.3197 7.5,34.5C 7.82497,26.9809 7.49163,19.6476 6.5,12.5C 7.30071,10.9582 7.63404,9.29152 7.5,7.5C 8.5,7.5 9.5,7.5 10.5,7.5C 10.5,6.5 10.5,5.5 10.5,4.5C 16.7418,1.95501 22.2418,3.28835 27,8.5C 29.4888,4.1675 32.9888,1.1675 37.5,-0.5 Z"/></g>
<g><path style="opacity:0.668" fill="#c24f43" d="M 50.5,7.5 C 51.4972,7.47008 52.1639,7.97008 52.5,9C 51.1295,18.1306 49.9628,27.2973 49,36.5C 41.7583,37.9226 34.5917,39.256 27.5,40.5C 26.8333,40.5 26.1667,40.5 25.5,40.5C 19.2286,37.779 12.562,36.4456 5.5,36.5C 5.5,32.8333 5.5,29.1667 5.5,25.5C 6.16667,28.5 6.83333,31.5 7.5,34.5C 13.8003,35.3197 20.1337,36.653 26.5,38.5C 33.0596,36.9591 39.7263,36.1257 46.5,36C 48.0129,26.5598 49.3462,17.0598 50.5,7.5 Z"/></g>
<g><path style="opacity:0.999" fill="#ce7469" d="M 6.5,12.5 C 7.49163,19.6476 7.82497,26.9809 7.5,34.5C 6.83333,31.5 6.16667,28.5 5.5,25.5C 6.37257,21.2315 6.7059,16.8982 6.5,12.5 Z"/></g>
</svg>
